<svg width="22" height="18" viewBox="0 0 22 18" fill="none" xmlns="http://www.w3.org/2000/svg">
<path d="M21.6926 4.40336L19.1959 12.29C19.0093 12.85 18.5193 13.2234 17.9359 13.2234H8.29928C7.73928 13.2234 7.20261 12.8733 7.01595 12.36L3.35262 2.49004H1.20595C0.692614 2.49004 0.272614 2.07004 0.272614 1.55671C0.272614 1.04337 0.692614 0.623375 1.20595 0.623375H3.98261C4.37928 0.623375 4.72928 0.88003 4.86928 1.25336L8.67261 11.3334H17.5393L19.5226 5.03335H8.53261C8.01928 5.03335 7.59928 4.61335 7.59928 4.10002C7.59928 3.58669 8.01928 3.16669 8.53261 3.16669H20.8059C21.1093 3.16669 21.3893 3.33001 21.5526 3.56334C21.7393 3.79667 21.7859 4.12336 21.6926 4.40336ZM8.76595 14.4367C8.36928 14.4367 7.97261 14.6 7.69261 14.88C7.41261 15.16 7.24928 15.5567 7.24928 15.9534C7.24928 16.35 7.41261 16.7467 7.69261 17.0267C7.97261 17.3067 8.36928 17.47 8.76595 17.47C9.16261 17.47 9.55928 17.3067 9.83928 17.0267C10.1193 16.7467 10.2826 16.35 10.2826 15.9534C10.2826 15.5567 10.1193 15.16 9.83928 14.88C9.55928 14.6 9.16261 14.4367 8.76595 14.4367ZM17.1426 14.4367C16.7459 14.4367 16.3493 14.6 16.0693 14.88C15.7893 15.16 15.6259 15.5567 15.6259 15.9534C15.6259 16.35 15.7893 16.7467 16.0693 17.0267C16.3493 17.3067 16.7459 17.47 17.1426 17.47C17.5393 17.47 17.936 17.3067 18.216 17.0267C18.496 16.7467 18.6593 16.35 18.6593 15.9534C18.6593 15.5567 18.496 15.16 18.216 14.88C17.936 14.6 17.5393 14.4367 17.1426 14.4367Z" fill="white"/>
</svg>
