<svg width="20" height="20" viewBox="0 0 20 20" fill="none" xmlns="http://www.w3.org/2000/svg">
<path fill-rule="evenodd" clip-rule="evenodd" d="M8.75 20H2.91667C1.75 20 0.833333 19.05 0.833333 17.9167V8.21667C0.281667 7.8225 0 7.21583 0 6.59917C0 6.28583 0.0741667 5.97417 0.240833 5.65833C1.12833 4.07667 2.035 2.50583 2.96167 0.946667C3.34667 0.3325 3.97083 0 4.66583 0C5.195 0 5.47583 0.17 5.87 0.399167C6.42167 0.720833 13.37 4.85917 16.2967 6.6C16.3692 6.64333 19.1017 8.25667 19.1708 8.30417C19.7233 8.7125 20 9.30167 20 9.91583C20 10.2283 19.9233 10.5367 19.7542 10.8575C18.8675 12.44 17.96 14.0108 17.0333 15.57C16.5525 16.3367 15.6875 16.645 14.9533 16.4767C14.6267 16.6717 10.0983 19.6017 9.74333 19.7833C9.39917 19.96 9.10833 20 8.75 20ZM2.5 11.0308V17.9167C2.5 18.145 2.68417 18.3333 2.91667 18.3333H6.74C5.30667 15.9117 3.8925 13.4775 2.5 11.0308ZM3.83833 9.99917C3.8825 10.0758 8.5725 18.1633 8.61 18.215C8.7 18.3308 8.85917 18.3658 8.98917 18.2967C9.12583 18.22 13.2233 15.5875 13.2233 15.5875C12.6908 15.2733 6.43667 11.545 3.83833 9.99917ZM4.3875 1.80833C3.62667 3.02167 1.72167 6.4125 1.69167 6.48333C1.63333 6.62583 1.685 6.78833 1.81583 6.87C1.98333 6.97 15.1683 14.8258 15.2967 14.8458C15.4225 14.8642 15.5442 14.8083 15.6108 14.7008C16.3958 13.3808 18.2825 10.0758 18.3042 10.0333C18.3617 9.89 18.31 9.7275 18.1792 9.64583C18.0117 9.54583 4.86 1.73 4.77083 1.69083C4.62083 1.62917 4.46667 1.68917 4.3875 1.80833ZM5.685 4.05417C6.605 4.05417 7.35167 4.80167 7.35167 5.72083C7.35167 6.64083 6.605 7.3875 5.685 7.3875C4.765 7.3875 4.01833 6.64083 4.01833 5.72083C4.01833 4.80167 4.765 4.05417 5.685 4.05417Z" fill="#4680FF"/>
</svg>
