<svg width="14" height="14" viewBox="0 0 14 14" fill="none" xmlns="http://www.w3.org/2000/svg">
<path d="M3.10792 0.309999C3.55192 0.309999 3.93592 0.375999 4.25992 0.508C4.58392 0.64 4.85392 0.814 5.06992 1.03C5.29792 1.234 5.46592 1.474 5.57392 1.75C5.69392 2.014 5.76592 2.284 5.78992 2.56C5.81392 2.872 5.82592 3.208 5.82592 3.568C5.82592 3.916 5.81392 4.246 5.78992 4.558C5.76592 4.834 5.69392 5.11 5.57392 5.386C5.46592 5.65 5.29792 5.89 5.06992 6.106C4.85392 6.31 4.58392 6.478 4.25992 6.61C3.93592 6.73 3.55192 6.79 3.10792 6.79C2.66392 6.79 2.27992 6.73 1.95592 6.61C1.63192 6.478 1.35592 6.31 1.12792 6.106C0.911922 5.89 0.743922 5.65 0.623922 5.386C0.515922 5.11 0.449922 4.834 0.425922 4.558C0.401922 4.246 0.389922 3.916 0.389922 3.568C0.389922 3.208 0.401922 2.872 0.425922 2.56C0.449922 2.284 0.515922 2.014 0.623922 1.75C0.743922 1.474 0.911922 1.234 1.12792 1.03C1.35592 0.814 1.63192 0.64 1.95592 0.508C2.27992 0.375999 2.66392 0.309999 3.10792 0.309999ZM4.06192 4.378C4.07392 4.306 4.07992 4.192 4.07992 4.036C4.07992 3.88 4.07992 3.718 4.07992 3.55C4.07992 3.382 4.07992 3.22 4.07992 3.064C4.07992 2.908 4.07392 2.794 4.06192 2.722C4.03792 2.482 3.95992 2.278 3.82792 2.11C3.69592 1.942 3.45592 1.858 3.10792 1.858C2.75992 1.858 2.51992 1.942 2.38792 2.11C2.25592 2.278 2.17792 2.482 2.15392 2.722C2.14192 2.794 2.12992 2.908 2.11792 3.064C2.11792 3.22 2.11792 3.382 2.11792 3.55C2.11792 3.718 2.11792 3.88 2.11792 4.036C2.12992 4.192 2.14192 4.306 2.15392 4.378C2.17792 4.618 2.25592 4.822 2.38792 4.99C2.51992 5.158 2.75992 5.242 3.10792 5.242C3.45592 5.242 3.69592 5.158 3.82792 4.99C3.95992 4.822 4.03792 4.618 4.06192 4.378ZM10.9019 6.628C11.3459 6.628 11.7299 6.694 12.0539 6.826C12.3779 6.958 12.6479 7.132 12.8639 7.348C13.0919 7.552 13.2599 7.792 13.3679 8.068C13.4879 8.332 13.5599 8.602 13.5839 8.878C13.6079 9.19 13.6199 9.526 13.6199 9.886C13.6199 10.234 13.6079 10.564 13.5839 10.876C13.5599 11.152 13.4879 11.428 13.3679 11.704C13.2599 11.968 13.0919 12.208 12.8639 12.424C12.6479 12.628 12.3779 12.796 12.0539 12.928C11.7299 13.048 11.3459 13.108 10.9019 13.108C10.4579 13.108 10.0739 13.048 9.74992 12.928C9.42592 12.796 9.14992 12.628 8.92192 12.424C8.70592 12.208 8.53792 11.968 8.41792 11.704C8.30992 11.428 8.24392 11.152 8.21992 10.876C8.19592 10.564 8.18392 10.234 8.18392 9.886C8.18392 9.526 8.19592 9.19 8.21992 8.878C8.24392 8.602 8.30992 8.332 8.41792 8.068C8.53792 7.792 8.70592 7.552 8.92192 7.348C9.14992 7.132 9.42592 6.958 9.74992 6.826C10.0739 6.694 10.4579 6.628 10.9019 6.628ZM11.8559 10.696C11.8679 10.624 11.8739 10.51 11.8739 10.354C11.8739 10.198 11.8739 10.036 11.8739 9.868C11.8739 9.7 11.8739 9.538 11.8739 9.382C11.8739 9.226 11.8679 9.112 11.8559 9.04C11.8319 8.8 11.7539 8.596 11.6219 8.428C11.4899 8.26 11.2499 8.176 10.9019 8.176C10.5539 8.176 10.3139 8.26 10.1819 8.428C10.0499 8.596 9.97192 8.8 9.94792 9.04C9.93592 9.112 9.92392 9.226 9.91192 9.382C9.91192 9.538 9.91192 9.7 9.91192 9.868C9.91192 10.036 9.91192 10.198 9.91192 10.354C9.92392 10.51 9.93592 10.624 9.94792 10.696C9.97192 10.936 10.0499 11.14 10.1819 11.308C10.3139 11.476 10.5539 11.56 10.9019 11.56C11.2499 11.56 11.4899 11.476 11.6219 11.308C11.7539 11.14 11.8319 10.936 11.8559 10.696ZM10.3259 0.741999C10.4099 0.633999 10.4939 0.549999 10.5779 0.489999C10.6739 0.429999 10.8059 0.399999 10.9739 0.399999H12.0539C12.1859 0.399999 12.2879 0.435999 12.3599 0.508C12.4439 0.568 12.4859 0.652 12.4859 0.76C12.4859 0.784 12.4799 0.814 12.4679 0.85C12.4559 0.885999 12.4379 0.921999 12.4139 0.957999L3.52192 12.658C3.43792 12.766 3.34792 12.85 3.25192 12.91C3.16792 12.97 3.04192 13 2.87392 13H1.79392C1.66192 13 1.55392 12.97 1.46992 12.91C1.39792 12.838 1.36192 12.748 1.36192 12.64C1.36192 12.616 1.36792 12.586 1.37992 12.55C1.39192 12.514 1.40992 12.478 1.43392 12.442L10.3259 0.741999Z" fill="#6FCF97"/>
</svg>
