<svg width="22" height="18" viewBox="0 0 22 18" fill="none" xmlns="http://www.w3.org/2000/svg">
<path d="M21.6925 4.4033L19.1959 12.29C19.0092 12.85 18.5192 13.2233 17.9359 13.2233H8.29927C7.73927 13.2233 7.20261 12.8733 7.01594 12.3599L3.35263 2.48998H1.20597C0.692642 2.48998 0.272644 2.06998 0.272644 1.55665C0.272644 1.04331 0.692642 0.623314 1.20597 0.623314H3.98262C4.37929 0.623314 4.72929 0.879969 4.86929 1.2533L8.6726 11.3333H17.5392L19.5225 5.03329H8.5326C8.01927 5.03329 7.59927 4.61329 7.59927 4.09996C7.59927 3.58662 8.01927 3.16662 8.5326 3.16662H20.8059C21.1092 3.16662 21.3892 3.32995 21.5525 3.56328C21.7392 3.79661 21.7859 4.1233 21.6925 4.4033ZM8.76593 14.4366C8.36927 14.4366 7.9726 14.5999 7.6926 14.8799C7.4126 15.1599 7.24927 15.5566 7.24927 15.9533C7.24927 16.35 7.4126 16.7466 7.6926 17.0266C7.9726 17.3066 8.36927 17.47 8.76593 17.47C9.1626 17.47 9.55926 17.3066 9.83926 17.0266C10.1193 16.7466 10.2826 16.35 10.2826 15.9533C10.2826 15.5566 10.1193 15.1599 9.83926 14.8799C9.55926 14.5999 9.1626 14.4366 8.76593 14.4366ZM17.1426 14.4366C16.7459 14.4366 16.3492 14.5999 16.0692 14.8799C15.7892 15.1599 15.6259 15.5566 15.6259 15.9533C15.6259 16.35 15.7892 16.7466 16.0692 17.0266C16.3492 17.3066 16.7459 17.47 17.1426 17.47C17.5392 17.47 17.9359 17.3066 18.2159 17.0266C18.4959 16.7466 18.6592 16.35 18.6592 15.9533C18.6592 15.5566 18.4959 15.1599 18.2159 14.8799C17.9359 14.5999 17.5392 14.4366 17.1426 14.4366Z" fill="#4680FF"/>
</svg>
