<svg width="18" height="20" viewBox="0 0 18 20" fill="none" xmlns="http://www.w3.org/2000/svg">
<path d="M17.1673 11.3566L17.0789 9.7807L16.1169 11.032C16.0403 11.1316 15.8772 11.3078 15.669 11.4684C15.7512 11.1958 15.8247 10.885 15.8732 10.5421C16.0413 9.35465 15.9366 7.53219 14.4843 5.59313L13.8749 4.77953L13.4756 5.71434C13.0151 6.79262 12.2698 7.33359 11.5772 7.09246C11.044 6.90691 10.6106 6.29668 10.3883 5.41812C10.1809 4.59867 10.0603 3.15668 10.6642 0.94043L10.9205 0L9.96959 0.214219C6.76198 0.936797 4.60053 3.21469 3.71881 6.80156C3.34819 8.30934 3.27838 9.73781 3.28877 10.704C2.53088 10.0913 2.1524 9.55363 2.14248 9.53941L1.42057 8.47879L1.09174 9.72066C0.910999 10.4032 0.819397 11.1094 0.819397 11.8195C0.819397 16.2965 4.43463 19.9444 8.89905 19.9987C8.9326 19.9996 8.96623 20 8.99998 20C9.03373 20 9.06737 19.9996 9.10092 19.9987C13.5654 19.9444 17.1806 16.2965 17.1806 11.8195C17.1806 11.6696 17.1761 11.5139 17.1673 11.3566ZM9.00002 18.8271C7.4869 18.8271 6.25592 17.5962 6.25592 16.0831C6.25592 13.4425 7.50463 12.2596 8.47799 11.7387C8.35397 12.4091 8.46393 13.0443 8.67053 13.5173C8.97846 14.2221 9.52791 14.6839 10.1404 14.7523C10.381 14.7791 10.7837 14.7584 11.2058 14.4512C11.5521 14.92 11.7441 15.4919 11.7441 16.0831C11.7441 17.5962 10.5131 18.8271 9.00002 18.8271ZM12.4645 17.9088C12.7531 17.3633 12.9169 16.742 12.9169 16.0831C12.9169 14.9727 12.4428 13.91 11.616 13.1678L11.1351 12.736L10.752 13.2565C10.6544 13.3891 10.462 13.6085 10.2707 13.5868C10.119 13.5698 9.89772 13.3966 9.74537 13.0478C9.53471 12.5656 9.49198 11.8034 10.0035 11.1102L10.8153 10.01L9.45877 10.18C9.41303 10.1858 8.32612 10.3297 7.24834 11.1398C5.45885 12.4847 5.08319 14.5703 5.08319 16.0831C5.08319 16.7421 5.24705 17.3636 5.53584 17.9092C3.42108 16.7014 1.99241 14.4242 1.99241 11.8194C1.99241 11.5972 2.00287 11.3755 2.02365 11.1552C2.41916 11.5299 2.95533 11.9664 3.63795 12.3714L4.65698 12.9755L4.51959 11.7986C4.51694 11.7758 4.26006 9.48691 4.86526 7.05176C5.55725 4.26703 7.0453 2.44762 9.2951 1.63008C8.98135 3.17937 8.96479 4.57367 9.25139 5.70594C9.57225 6.97359 10.2796 7.88273 11.1919 8.20016C11.8262 8.42082 12.5097 8.33879 13.1169 7.96922C13.4664 7.75648 13.7825 7.45371 14.0543 7.07465C14.6415 8.12313 14.8649 9.21371 14.719 10.3268C14.581 11.3798 14.1476 12.0677 14.1447 12.0723L13.643 12.8419L14.5523 12.9729C15.0101 13.0389 15.4882 12.9382 15.9552 12.6805C15.6794 14.9203 14.3424 16.8362 12.4645 17.9088Z" fill="#F2994A"/>
</svg>
