<svg width="28" height="26" viewBox="0 0 28 26" fill="none" xmlns="http://www.w3.org/2000/svg">
<path d="M12.8334 0H15.1667V2.33333H12.8334V0Z" fill="#E0B973"/>
<path d="M19.8334 0H22.1667V2.33333H19.8334V0Z" fill="#E0B973"/>
<path d="M5.83337 0H8.16671V2.33333H5.83337V0Z" fill="#E0B973"/>
<path d="M26.8333 2.33325H22.1667V5.83325H19.8333V2.33325H15.1667V5.83325H12.8333V2.33325H8.16667V5.83325H5.83333V2.33325H1.16667C0.857247 2.33325 0.560501 2.45617 0.341709 2.67496C0.122916 2.89375 0 3.1905 0 3.49992L0 24.4999C0 24.8093 0.122916 25.1061 0.341709 25.3249C0.560501 25.5437 0.857247 25.6666 1.16667 25.6666H26.8333C27.1427 25.6666 27.4395 25.5437 27.6583 25.3249C27.8771 25.1061 28 24.8093 28 24.4999V3.49992C28 3.1905 27.8771 2.89375 27.6583 2.67496C27.4395 2.45617 27.1427 2.33325 26.8333 2.33325ZM21.4887 17.2826L19.8333 16.0999V20.9999C19.8333 21.3093 19.7104 21.6061 19.4916 21.8249C19.2728 22.0437 18.9761 22.1666 18.6667 22.1666H15.75V17.4999C15.75 17.1905 15.6271 16.8938 15.4083 16.675C15.1895 16.4562 14.8927 16.3333 14.5833 16.3333H13.4167C13.1072 16.3333 12.8105 16.4562 12.5917 16.675C12.3729 16.8938 12.25 17.1905 12.25 17.4999V22.1666H9.33333C9.02391 22.1666 8.72717 22.0437 8.50837 21.8249C8.28958 21.6061 8.16667 21.3093 8.16667 20.9999V16.0999L6.51146 17.2826L5.15521 15.3839L13.3219 9.55054C13.5206 9.41124 13.7573 9.33651 14 9.33651C14.2427 9.33651 14.4794 9.41124 14.6781 9.55054L22.8448 15.3839L21.4887 17.2826Z" fill="#E0B973"/>
</svg>
