<svg width="218" height="67" viewBox="0 0 218 67" fill="none" xmlns="http://www.w3.org/2000/svg">
<path d="M62.31 65.675C62.23 65.655 62.14 65.62 62.04 65.57C61.95 65.53 61.88 65.47 61.83 65.39C61.83 65.04 61.82 64.695 61.8 64.355C61.79 64.005 61.785 63.655 61.785 63.305C61.785 62.765 61.8 62.225 61.83 61.685C61.87 61.145 61.89 60.605 61.89 60.065C61.81 60.925 61.77 61.785 61.77 62.645C61.77 63.495 61.745 64.35 61.695 65.21C61.555 65.01 61.47 64.785 61.44 64.535C61.42 64.275 61.41 64.025 61.41 63.785L61.44 63.035L61.605 62.96C61.575 62.68 61.56 62.39 61.56 62.09C61.56 61.74 61.575 61.4 61.605 61.07C61.635 60.73 61.665 60.385 61.695 60.035H61.575L61.425 62.39L61.5 60.035C61.23 60.035 60.965 60.06 60.705 60.11C60.445 60.16 60.18 60.185 59.91 60.185C59.4 60.185 58.89 60.175 58.38 60.155C57.88 60.135 57.375 60.115 56.865 60.095C56.865 60.655 56.835 61.21 56.775 61.76C56.725 62.3 56.7 62.845 56.7 63.395C56.7 63.475 56.705 63.58 56.715 63.71C56.735 63.83 56.745 63.96 56.745 64.1C56.745 64.23 56.73 64.345 56.7 64.445C56.67 64.545 56.615 64.61 56.535 64.64L56.43 64.61L56.445 63.05C56.425 63.31 56.41 63.57 56.4 63.83C56.39 64.09 56.385 64.35 56.385 64.61C56.355 64.6 56.31 64.595 56.25 64.595C56.18 64.595 56.135 64.6 56.115 64.61C56.125 64.64 56.13 64.68 56.13 64.73C56.13 64.97 56.01 65.12 55.77 65.18C55.68 65.14 55.605 65.105 55.545 65.075C55.485 65.045 55.435 65.005 55.395 64.955C55.355 64.895 55.325 64.825 55.305 64.745C55.285 64.665 55.275 64.555 55.275 64.415V64.16L55.2 64.655C55.12 64.575 55.07 64.49 55.05 64.4C55.03 64.31 55.02 64.215 55.02 64.115C55.02 63.865 55.03 63.62 55.05 63.38C55.07 63.13 55.08 62.88 55.08 62.63L55.2 62.555C55.17 62.225 55.155 61.895 55.155 61.565C55.155 61.245 55.16 60.92 55.17 60.59C55.19 60.26 55.2 59.93 55.2 59.6C55.2 59.37 55.195 59.135 55.185 58.895C55.175 58.655 55.15 58.42 55.11 58.19H55.02C55.04 58.59 55.05 58.99 55.05 59.39C55.06 59.79 55.065 60.19 55.065 60.59V62.465C55.065 61.465 55.035 60.465 54.975 59.465C54.925 58.465 54.9 57.465 54.9 56.465C54.95 55.985 54.99 55.57 55.02 55.22C55.06 54.87 55.105 54.485 55.155 54.065C55.255 54.075 55.365 54.09 55.485 54.11C55.615 54.13 55.68 54.21 55.68 54.35L55.65 54.605H55.845C55.865 54.545 55.89 54.475 55.92 54.395C55.96 54.305 56.005 54.225 56.055 54.155C56.105 54.075 56.16 54.01 56.22 53.96C56.29 53.9 56.365 53.87 56.445 53.87C56.545 53.87 56.62 53.945 56.67 54.095C56.73 54.235 56.775 54.42 56.805 54.65C56.835 54.88 56.855 55.15 56.865 55.46C56.875 55.76 56.88 56.065 56.88 56.375C56.88 56.545 56.875 56.71 56.865 56.87C56.865 57.03 56.865 57.185 56.865 57.335C56.865 57.535 56.865 57.725 56.865 57.905C56.875 58.075 56.885 58.23 56.895 58.37H57.69L57.81 58.55C57.95 58.53 58.085 58.515 58.215 58.505C58.345 58.495 58.48 58.49 58.62 58.49C58.73 58.49 58.845 58.495 58.965 58.505C59.085 58.505 59.2 58.505 59.31 58.505C59.5 58.505 59.685 58.495 59.865 58.475C60.055 58.455 60.245 58.42 60.435 58.37V58.28C60.085 58.33 59.74 58.36 59.4 58.37C59.09 58.37 58.775 58.37 58.455 58.37C58.945 58.35 59.445 58.315 59.955 58.265C60.485 58.215 61.015 58.18 61.545 58.16C61.545 57.58 61.565 57 61.605 56.42C61.645 55.84 61.665 55.265 61.665 54.695L61.65 54.38L62.025 54.35C62.065 54.35 62.095 54.375 62.115 54.425C62.145 54.465 62.17 54.515 62.19 54.575C62.21 54.625 62.225 54.68 62.235 54.74C62.245 54.79 62.25 54.825 62.25 54.845C62.28 54.815 62.315 54.77 62.355 54.71C62.395 54.65 62.435 54.59 62.475 54.53C62.525 54.47 62.57 54.42 62.61 54.38C62.65 54.33 62.68 54.305 62.7 54.305C62.87 54.305 63.005 54.335 63.105 54.395C63.205 54.455 63.28 54.54 63.33 54.65C63.39 54.75 63.425 54.865 63.435 54.995C63.455 55.125 63.465 55.255 63.465 55.385C63.465 55.485 63.46 55.585 63.45 55.685C63.45 55.775 63.45 55.86 63.45 55.94V57.815C63.45 58.785 63.395 59.755 63.285 60.725C63.175 61.685 63.12 62.645 63.12 63.605C63.12 63.675 63.13 63.805 63.15 63.995C63.18 64.175 63.195 64.355 63.195 64.535C63.195 64.675 63.18 64.795 63.15 64.895C63.12 64.985 63.065 65.03 62.985 65.03C62.915 64.66 62.87 64.28 62.85 63.89C62.85 64.27 62.865 64.65 62.895 65.03L62.76 65C62.74 65.14 62.695 65.275 62.625 65.405C62.565 65.535 62.46 65.625 62.31 65.675ZM55.395 62.375C55.425 62.015 55.44 61.65 55.44 61.28C55.44 61.02 55.435 60.765 55.425 60.515C55.415 60.285 55.4 60.05 55.38 59.81C55.38 60.14 55.38 60.47 55.38 60.8C55.39 61.14 55.395 61.485 55.395 61.835V62.375ZM58.59 58.76C58.74 58.76 58.89 58.755 59.04 58.745C59.2 58.735 59.355 58.72 59.505 58.7H59.205C58.995 58.7 58.785 58.705 58.575 58.715C58.375 58.725 58.17 58.73 57.96 58.73C58.07 58.75 58.175 58.76 58.275 58.76H58.59ZM56.91 58.745H57.87C57.84 58.745 57.81 58.74 57.78 58.73C57.69 58.72 57.585 58.71 57.465 58.7C57.345 58.69 57.23 58.68 57.12 58.67C57.02 58.66 56.95 58.65 56.91 58.64V58.745ZM62.88 61.775C62.86 62.105 62.85 62.435 62.85 62.765C62.87 62.445 62.89 62.115 62.91 61.775C62.94 61.425 62.975 61.08 63.015 60.74C62.955 61.08 62.91 61.425 62.88 61.775ZM57.81 59.795C57.51 59.765 57.21 59.75 56.91 59.75L56.895 59.795H57.81ZM77.6161 65.93C78.0561 66.07 78.5061 66.14 78.9661 66.14C79.4861 66.14 79.9711 66.06 80.4211 65.9C80.8711 65.74 81.2811 65.52 81.6511 65.24C82.0211 64.96 82.3461 64.635 82.6261 64.265C82.8261 64.005 83.0011 63.725 83.1511 63.425C83.0211 63.705 82.8711 63.98 82.7011 64.25C82.4611 64.63 82.1611 64.965 81.8011 65.255C81.4511 65.545 81.0461 65.775 80.5861 65.945C80.1261 66.125 79.6061 66.215 79.0261 66.215H78.8311C78.0011 66.215 77.2811 66.03 76.6711 65.66C76.0611 65.29 75.5561 64.82 75.1561 64.25C74.7561 63.67 74.4561 63.025 74.2561 62.315C74.0661 61.605 73.9711 60.905 73.9711 60.215C73.9711 59.925 73.9861 59.62 74.0161 59.3C74.0461 58.97 74.1111 58.64 74.2111 58.31C74.3111 57.98 74.4511 57.66 74.6311 57.35C74.8211 57.03 75.0761 56.74 75.3961 56.48C75.6561 56.27 75.9361 56.095 76.2361 55.955C76.5461 55.805 76.8511 55.72 77.1511 55.7C77.1211 55.72 77.1061 55.74 77.1061 55.76C77.1061 55.8 77.1261 55.845 77.1661 55.895C77.2161 55.935 77.2411 55.98 77.2411 56.03V56.06C77.2411 56.1 77.2161 56.13 77.1661 56.15C77.1261 56.17 77.0561 56.2 76.9561 56.24C76.8561 56.27 76.7261 56.32 76.5661 56.39C76.4061 56.46 76.2161 56.565 75.9961 56.705C76.0561 56.765 76.0861 56.81 76.0861 56.84C76.2761 56.74 76.4511 56.67 76.6111 56.63C76.7711 56.59 76.9211 56.57 77.0611 56.57C77.3511 56.57 77.5611 56.62 77.6911 56.72C77.8211 56.82 77.8861 56.895 77.8861 56.945C77.8861 57.025 77.8211 57.09 77.6911 57.14C77.5711 57.19 77.4261 57.255 77.2561 57.335C77.0961 57.405 76.9261 57.505 76.7461 57.635C76.5661 57.755 76.4261 57.935 76.3261 58.175C76.1661 58.415 76.0411 58.715 75.9511 59.075C75.8711 59.435 75.8311 59.8 75.8311 60.17C75.8311 60.8 75.9061 61.375 76.0561 61.895C76.2061 62.415 76.4161 62.865 76.6861 63.245C76.9661 63.625 77.3011 63.92 77.6911 64.13C78.0911 64.34 78.5411 64.445 79.0411 64.445C79.5211 64.445 79.9511 64.325 80.3311 64.085C80.7211 63.845 81.0511 63.52 81.3211 63.11C81.5911 62.69 81.7961 62.21 81.9361 61.67C82.0761 61.12 82.1461 60.535 82.1461 59.915C82.1461 59.615 82.1261 59.32 82.0861 59.03C82.0561 58.73 81.9861 58.445 81.8761 58.175C81.7761 57.905 81.6311 57.65 81.4411 57.41C81.2611 57.17 81.0211 56.95 80.7211 56.75C80.3411 56.55 80.0311 56.41 79.7911 56.33C79.5511 56.24 79.4311 56.155 79.4311 56.075C79.4311 56.045 79.4511 56.01 79.4911 55.97C79.9911 56.08 80.4411 56.26 80.8411 56.51C81.2111 56.74 81.5211 57.04 81.7711 57.41C81.5011 57 81.1961 56.685 80.8561 56.465C80.4861 56.215 80.0461 56.02 79.5361 55.88C79.5861 55.83 79.6111 55.785 79.6111 55.745C79.6111 55.705 79.5361 55.67 79.3861 55.64C79.2461 55.61 79.0911 55.575 78.9211 55.535C78.7511 55.495 78.5911 55.445 78.4411 55.385C78.3011 55.325 78.2311 55.25 78.2311 55.16C78.2311 55.05 78.3211 54.97 78.5011 54.92C78.6811 54.87 78.9011 54.81 79.1611 54.74C79.2311 54.74 79.2961 54.75 79.3561 54.77C79.4261 54.79 79.4861 54.81 79.5361 54.83C80.0261 54.92 80.4911 55.08 80.9311 55.31C81.3811 55.54 81.7811 55.835 82.1311 56.195C82.4911 56.555 82.7911 56.985 83.0311 57.485C83.2711 57.975 83.4261 58.53 83.4961 59.15C83.4461 58.56 83.3111 58.025 83.0911 57.545C82.8811 57.055 82.6011 56.62 82.2511 56.24C81.9111 55.86 81.5111 55.54 81.0511 55.28C80.5911 55.02 80.1011 54.82 79.5811 54.68C80.0411 54.68 80.4961 54.775 80.9461 54.965C81.4061 55.145 81.8261 55.415 82.2061 55.775C82.5861 56.125 82.9161 56.56 83.1961 57.08C83.4761 57.6 83.6761 58.195 83.7961 58.865C83.7761 58.865 83.7461 58.875 83.7061 58.895C83.6661 58.905 83.6361 58.91 83.6161 58.91C83.7061 59.42 83.7511 59.915 83.7511 60.395C83.7511 61.095 83.6411 61.78 83.4211 62.45C83.2111 63.12 82.9011 63.72 82.4911 64.25C82.0911 64.77 81.5961 65.19 81.0061 65.51C80.4161 65.84 79.7411 66.005 78.9811 66.005C78.5311 66.005 78.0911 65.94 77.6611 65.81C77.2311 65.68 76.8311 65.505 76.4611 65.285C76.4811 65.305 76.4911 65.325 76.4911 65.345C76.4911 65.365 76.4661 65.375 76.4161 65.375C76.7861 65.615 77.1861 65.8 77.6161 65.93ZM83.5261 60.56C83.4761 60.95 83.4011 61.355 83.3011 61.775C83.2111 62.185 83.0811 62.59 82.9111 62.99C82.7511 63.39 82.5461 63.765 82.2961 64.115C82.0461 64.455 81.7511 64.75 81.4111 65C81.7511 64.76 82.0511 64.475 82.3111 64.145C82.5711 63.805 82.7861 63.435 82.9561 63.035C83.1361 62.635 83.2711 62.215 83.3611 61.775C83.4611 61.325 83.5211 60.88 83.5411 60.44C83.5311 60.47 83.5261 60.51 83.5261 60.56ZM82.3261 61.43C82.2461 61.81 82.1261 62.18 81.9661 62.54C81.8061 62.89 81.6011 63.205 81.3511 63.485C81.6111 63.215 81.8211 62.905 81.9811 62.555C82.1411 62.205 82.2561 61.83 82.3261 61.43ZM83.8711 60.11C83.8711 60.28 83.8611 60.455 83.8411 60.635C83.8311 60.805 83.8161 60.98 83.7961 61.16C83.7961 60.99 83.8061 60.8 83.8261 60.59C83.8461 60.37 83.8561 60.13 83.8561 59.87V59.6C83.8661 59.68 83.8711 59.765 83.8711 59.855V60.11ZM82.3261 61.43C82.3761 61.21 82.4111 60.99 82.4311 60.77C82.4611 60.54 82.4761 60.31 82.4761 60.08C82.4761 59.83 82.4611 59.575 82.4311 59.315C82.4411 59.425 82.4461 59.53 82.4461 59.63C82.4561 59.73 82.4611 59.835 82.4611 59.945C82.4611 60.455 82.4161 60.95 82.3261 61.43ZM83.7961 61.25L83.6611 61.985C83.6111 62.165 83.5611 62.345 83.5111 62.525C83.4611 62.695 83.4011 62.865 83.3311 63.035C83.4411 62.725 83.5311 62.415 83.6011 62.105C83.6811 61.795 83.7461 61.49 83.7961 61.19V61.25ZM76.4311 65.405C76.4311 65.395 76.4261 65.385 76.4161 65.375C76.4161 65.385 76.4211 65.395 76.4311 65.405ZM83.3311 63.035C83.3111 63.075 83.2961 63.11 83.2861 63.14C83.2961 63.11 83.3111 63.075 83.3311 63.035ZM83.1661 63.395C83.1861 63.365 83.2011 63.335 83.2111 63.305C83.2011 63.335 83.1861 63.365 83.1661 63.395ZM81.8611 57.53C81.8511 57.51 81.8361 57.49 81.8161 57.47C81.8261 57.49 81.8411 57.51 81.8611 57.53ZM83.2861 63.14C83.2661 63.19 83.2461 63.24 83.2261 63.29C83.2461 63.24 83.2661 63.19 83.2861 63.14ZM103.249 55.52C102.479 55.52 101.714 55.545 100.954 55.595C100.194 55.635 99.4338 55.655 98.6738 55.655C98.8038 55.665 98.9288 55.675 99.0488 55.685C99.1788 55.685 99.3138 55.685 99.4538 55.685C99.9138 55.685 100.369 55.68 100.819 55.67C101.279 55.65 101.739 55.64 102.199 55.64H102.649C102.799 55.64 102.954 55.645 103.114 55.655C102.974 55.745 102.824 55.81 102.664 55.85C102.514 55.89 102.359 55.92 102.199 55.94C102.049 55.95 101.889 55.955 101.719 55.955C101.559 55.955 101.399 55.96 101.239 55.97L101.104 55.79C100.874 55.83 100.644 55.855 100.414 55.865C100.184 55.875 99.9538 55.88 99.7238 55.88L98.3888 55.865L98.4038 56L100.909 55.985C100.059 56.035 99.2238 56.065 98.4038 56.075C98.4138 56.205 98.4238 56.335 98.4338 56.465C98.4438 56.585 98.4588 56.71 98.4788 56.84L98.2988 56.885C98.3788 57.225 98.4338 57.6 98.4638 58.01C98.5038 58.41 98.5388 58.82 98.5688 59.24C98.5988 59.66 98.6388 60.075 98.6888 60.485C98.7488 60.885 98.8338 61.25 98.9438 61.58L98.9888 61.535C98.9288 61.195 98.8738 60.83 98.8238 60.44C98.7738 60.04 98.7238 59.635 98.6738 59.225C98.6338 58.805 98.5938 58.395 98.5538 57.995C98.5238 57.615 98.4988 57.26 98.4788 56.93C98.5188 57.46 98.5788 58.015 98.6588 58.595C98.7488 59.185 98.8438 59.785 98.9438 60.395C99.0438 60.995 99.1388 61.59 99.2288 62.18C99.3288 62.77 99.4188 63.335 99.4988 63.875C99.5188 64.045 99.5438 64.23 99.5738 64.43C99.6038 64.62 99.6188 64.815 99.6188 65.015V65.195C99.6188 65.265 99.6088 65.33 99.5888 65.39C99.5188 65.39 99.4488 65.4 99.3788 65.42C99.3188 65.45 99.2538 65.465 99.1838 65.465C99.0738 65.465 99.0038 65.41 98.9738 65.3C98.9538 65.19 98.9438 65.095 98.9438 65.015H98.8088C98.7988 65.075 98.7788 65.15 98.7488 65.24C98.7288 65.34 98.6938 65.435 98.6438 65.525C98.6038 65.615 98.5488 65.69 98.4788 65.75C98.4188 65.81 98.3488 65.84 98.2688 65.84C98.1688 65.84 98.0788 65.77 97.9988 65.63C97.9188 65.49 97.8438 65.31 97.7738 65.09C97.7138 64.87 97.6588 64.63 97.6088 64.37C97.5688 64.1 97.5288 63.845 97.4888 63.605C97.4588 63.355 97.4288 63.13 97.3988 62.93C97.3788 62.73 97.3588 62.585 97.3388 62.495C97.2388 62.075 97.1438 61.615 97.0537 61.115C96.9738 60.615 96.9038 60.11 96.8438 59.6C96.7838 59.09 96.7338 58.585 96.6938 58.085C96.6638 57.575 96.6488 57.1 96.6488 56.66C96.6488 56.59 96.6488 56.525 96.6488 56.465C96.6588 56.395 96.6638 56.325 96.6638 56.255V56.165C96.6638 56.125 96.6588 56.085 96.6488 56.045C96.0588 56.035 95.4988 56.01 94.9688 55.97C94.4388 55.92 93.8488 55.855 93.1988 55.775C93.2088 55.715 93.2138 55.65 93.2138 55.58C93.2138 55.51 93.2188 55.445 93.2288 55.385C93.2488 55.325 93.2738 55.275 93.3038 55.235C93.3438 55.185 93.4088 55.16 93.4988 55.16C93.5588 55.16 93.6288 55.17 93.7088 55.19L93.7538 55.055C93.6338 55.005 93.4938 54.925 93.3338 54.815C93.1738 54.705 93.0938 54.575 93.0938 54.425C93.0938 54.335 93.1288 54.27 93.1988 54.23C93.2688 54.18 93.3538 54.145 93.4538 54.125C93.5538 54.105 93.6538 54.095 93.7538 54.095C93.8538 54.085 93.9288 54.08 93.9788 54.08C94.3388 54.08 94.6938 54.1 95.0438 54.14C95.4038 54.18 95.7638 54.2 96.1238 54.2C97.0338 54.2 97.9388 54.215 98.8388 54.245C99.7388 54.265 100.644 54.275 101.554 54.275C101.734 54.275 101.909 54.25 102.079 54.2C102.259 54.15 102.439 54.125 102.619 54.125C102.689 54.125 102.749 54.145 102.799 54.185C102.859 54.225 102.889 54.285 102.889 54.365C102.619 54.415 102.344 54.455 102.064 54.485C101.814 54.505 101.559 54.525 101.299 54.545C101.559 54.545 101.814 54.535 102.064 54.515C102.334 54.495 102.609 54.475 102.889 54.455V54.74L103.159 54.695C103.239 54.715 103.314 54.755 103.384 54.815C103.454 54.865 103.489 54.94 103.489 55.04C103.489 55.13 103.464 55.22 103.414 55.31C103.364 55.39 103.309 55.46 103.249 55.52ZM97.9838 56.075C98.0038 56.365 98.0288 56.685 98.0588 57.035C98.0988 57.385 98.1388 57.74 98.1788 58.1C98.2188 58.46 98.2588 58.815 98.2988 59.165C98.3488 59.505 98.3938 59.82 98.4338 60.11C98.4038 59.83 98.3688 59.515 98.3288 59.165C98.2988 58.815 98.2688 58.46 98.2388 58.1C98.2088 57.74 98.1788 57.385 98.1488 57.035C98.1288 56.685 98.1188 56.365 98.1188 56.075H97.9838ZM100.714 54.545H99.8888C99.6388 54.545 99.3888 54.54 99.1388 54.53C99.2588 54.55 99.3738 54.57 99.4838 54.59C99.6238 54.62 99.7788 54.635 99.9488 54.635C100.069 54.635 100.194 54.625 100.324 54.605C100.464 54.585 100.594 54.565 100.714 54.545ZM98.0438 56H98.1188V55.865H98.0438V56ZM118.967 60.125C118.577 59.985 118.172 59.895 117.752 59.855C117.352 59.805 116.942 59.76 116.522 59.72C116.902 59.78 117.292 59.835 117.692 59.885C118.112 59.935 118.507 60.045 118.877 60.215C118.837 60.255 118.797 60.29 118.757 60.32C118.717 60.35 118.677 60.365 118.637 60.365C118.497 60.365 118.362 60.35 118.232 60.32C118.102 60.28 117.962 60.26 117.812 60.26V60.08C117.762 60.09 117.692 60.095 117.602 60.095C117.352 60.095 117.107 60.06 116.867 59.99C116.627 59.92 116.382 59.885 116.132 59.885C116.002 59.885 115.877 59.9 115.757 59.93V59.99C116.077 60.01 116.402 60.045 116.732 60.095C117.072 60.135 117.417 60.19 117.767 60.26C117.447 60.21 117.102 60.165 116.732 60.125C116.372 60.085 116.032 60.065 115.712 60.065C115.582 60.065 115.457 60.07 115.337 60.08C115.227 60.08 115.117 60.085 115.007 60.095C115.007 60.305 115.012 60.55 115.022 60.83C115.032 61.11 115.052 61.385 115.082 61.655C115.112 61.915 115.147 62.145 115.187 62.345C115.227 62.545 115.277 62.675 115.337 62.735L115.472 63.005C115.592 63.375 115.992 63.56 116.672 63.56C116.822 63.56 117.002 63.54 117.212 63.5C117.422 63.46 117.632 63.415 117.842 63.365C118.062 63.305 118.267 63.255 118.457 63.215C118.657 63.175 118.827 63.155 118.967 63.155C119.107 63.155 119.187 63.175 119.207 63.215C119.227 63.255 119.237 63.31 119.237 63.38C118.817 63.43 118.412 63.505 118.022 63.605C117.682 63.695 117.352 63.765 117.032 63.815C117.352 63.765 117.677 63.705 118.007 63.635C118.397 63.545 118.792 63.475 119.192 63.425C119.172 63.485 119.162 63.525 119.162 63.545C119.162 63.605 119.187 63.655 119.237 63.695L119.447 63.665C119.507 63.655 119.567 63.65 119.627 63.65C119.687 63.64 119.742 63.625 119.792 63.605C119.972 63.655 120.097 63.71 120.167 63.77C120.247 63.83 120.287 63.895 120.287 63.965C120.287 64.095 120.222 64.185 120.092 64.235C119.972 64.285 119.857 64.365 119.747 64.475H119.687C119.397 64.475 119.117 64.5 118.847 64.55C118.577 64.59 118.307 64.635 118.037 64.685C117.777 64.735 117.507 64.785 117.227 64.835C116.957 64.875 116.677 64.895 116.387 64.895H116.177H116.087C116.277 64.915 116.482 64.925 116.702 64.925C116.982 64.925 117.242 64.91 117.482 64.88C117.732 64.85 117.972 64.815 118.202 64.775C118.432 64.735 118.652 64.7 118.862 64.67C119.082 64.64 119.302 64.625 119.522 64.625C119.362 64.705 119.167 64.785 118.937 64.865C118.707 64.935 118.452 64.995 118.172 65.045C117.892 65.105 117.602 65.15 117.302 65.18C117.002 65.22 116.707 65.24 116.417 65.24C116.217 65.24 116.022 65.23 115.832 65.21C115.642 65.19 115.437 65.125 115.217 65.015L115.202 64.85C115.062 64.8 114.912 64.71 114.752 64.58C114.602 64.44 114.462 64.295 114.332 64.145C114.202 63.995 114.092 63.855 114.002 63.725C113.912 63.595 113.867 63.51 113.867 63.47L113.822 63.335C113.732 63.145 113.657 62.935 113.597 62.705C113.547 62.475 113.507 62.245 113.477 62.015C113.447 61.775 113.422 61.54 113.402 61.31C113.382 61.08 113.367 60.865 113.357 60.665C113.337 60.335 113.322 60.005 113.312 59.675C113.302 59.335 113.297 58.995 113.297 58.655C113.297 58.315 113.297 57.975 113.297 57.635C113.307 57.285 113.312 56.935 113.312 56.585H113.267C113.217 56.965 113.187 57.33 113.177 57.68C113.177 58.03 113.177 58.38 113.177 58.73V59.315C113.177 60.015 113.212 60.745 113.282 61.505C113.362 62.265 113.557 63.005 113.867 63.725C113.637 63.335 113.492 62.95 113.432 62.57C113.372 62.18 113.317 61.82 113.267 61.49C113.207 61.06 113.162 60.645 113.132 60.245C113.112 59.845 113.102 59.435 113.102 59.015V58.7C113.102 58.12 113.117 57.53 113.147 56.93C113.177 56.33 113.267 55.695 113.417 55.025C113.357 55.025 113.327 54.995 113.327 54.935C113.327 54.875 113.357 54.79 113.417 54.68C113.487 54.57 113.572 54.465 113.672 54.365C113.772 54.255 113.882 54.165 114.002 54.095C114.132 54.015 114.257 53.975 114.377 53.975H117.947C118.317 54.045 118.677 54.105 119.027 54.155C119.387 54.195 119.762 54.225 120.152 54.245L120.137 54.59C120.137 54.65 120.107 54.7 120.047 54.74C119.997 54.77 119.877 54.785 119.687 54.785C119.627 54.785 119.552 54.785 119.462 54.785C119.382 54.775 119.292 54.765 119.192 54.755V54.89C119.602 54.98 119.922 55.09 120.152 55.22C120.392 55.35 120.512 55.475 120.512 55.595C120.512 55.735 120.377 55.82 120.107 55.85C119.847 55.88 119.497 55.895 119.057 55.895C118.497 55.895 117.897 55.895 117.257 55.895C116.627 55.885 116.017 55.855 115.427 55.805H115.172C115.122 56.185 115.087 56.575 115.067 56.975C115.047 57.375 115.032 57.785 115.022 58.205C115.182 58.205 115.337 58.2 115.487 58.19C115.647 58.17 115.812 58.16 115.982 58.16C116.122 58.16 116.282 58.175 116.462 58.205C116.652 58.225 116.847 58.255 117.047 58.295C117.257 58.335 117.462 58.385 117.662 58.445C117.872 58.495 118.062 58.55 118.232 58.61C118.262 58.62 118.297 58.625 118.337 58.625H118.592C118.722 58.625 118.807 58.645 118.847 58.685C118.897 58.725 118.922 58.805 118.922 58.925C118.752 58.925 118.592 58.915 118.442 58.895C118.292 58.875 118.147 58.855 118.007 58.835C118.147 58.885 118.292 58.925 118.442 58.955C118.592 58.975 118.752 58.995 118.922 59.015C118.902 59.065 118.887 59.11 118.877 59.15C118.877 59.19 118.877 59.225 118.877 59.255C118.977 59.275 119.042 59.325 119.072 59.405C119.112 59.475 119.132 59.555 119.132 59.645C119.132 59.775 119.102 59.88 119.042 59.96C118.992 60.03 118.967 60.085 118.967 60.125ZM113.687 61.82C113.727 62.06 113.772 62.32 113.822 62.6C113.882 62.87 113.967 63.14 114.077 63.41C114.197 63.67 114.357 63.915 114.557 64.145C114.717 64.335 114.927 64.495 115.187 64.625C114.887 64.465 114.642 64.245 114.452 63.965C114.232 63.625 114.057 63.245 113.927 62.825C113.807 62.405 113.717 61.96 113.657 61.49C113.607 61.02 113.567 60.57 113.537 60.14C113.547 60.41 113.562 60.685 113.582 60.965C113.602 61.245 113.637 61.53 113.687 61.82ZM117.362 58.76C117.532 58.79 117.712 58.815 117.902 58.835C117.722 58.785 117.552 58.75 117.392 58.73C117.232 58.7 117.072 58.665 116.912 58.625C117.042 58.685 117.192 58.73 117.362 58.76ZM114.902 64.91C114.772 64.85 114.657 64.78 114.557 64.7C114.487 64.64 114.422 64.58 114.362 64.52C114.422 64.58 114.492 64.635 114.572 64.685C114.682 64.765 114.792 64.84 114.902 64.91ZM115.352 64.7L115.217 64.64L115.352 64.7ZM130.804 60.665C130.834 61.365 130.864 62.065 130.894 62.765C130.934 63.465 130.964 64.165 130.984 64.865V64.94L130.939 64.895V64.79C130.889 63.89 130.839 63.005 130.789 62.135C130.749 61.255 130.729 60.365 130.729 59.465V57.77C130.729 57.5 130.729 57.235 130.729 56.975C130.739 56.705 130.749 56.435 130.759 56.165C130.769 55.855 130.794 55.555 130.834 55.265C130.874 54.965 130.894 54.655 130.894 54.335H130.954C131.024 54.335 131.084 54.33 131.134 54.32C131.184 54.31 131.224 54.305 131.254 54.305C131.354 54.305 131.414 54.37 131.434 54.5C131.454 54.63 131.464 54.73 131.464 54.8L131.449 55.115H131.629C131.639 55.055 131.654 54.96 131.674 54.83C131.704 54.69 131.744 54.55 131.794 54.41C131.844 54.27 131.899 54.15 131.959 54.05C132.029 53.94 132.109 53.885 132.199 53.885C132.299 53.885 132.374 53.975 132.424 54.155C132.484 54.335 132.529 54.55 132.559 54.8C132.589 55.04 132.604 55.29 132.604 55.55C132.614 55.8 132.619 56 132.619 56.15V56.33C132.619 57.48 132.629 58.63 132.649 59.78C132.669 60.93 132.679 62.08 132.679 63.23C132.679 63.32 132.674 63.415 132.664 63.515C132.664 63.605 132.664 63.695 132.664 63.785C132.664 63.835 132.664 63.88 132.664 63.92C132.674 63.96 132.679 64.005 132.679 64.055H132.829C132.919 64.055 133.009 64.06 133.099 64.07C133.189 64.07 133.279 64.07 133.369 64.07C133.999 64.07 134.619 64.04 135.229 63.98C135.849 63.91 136.474 63.875 137.104 63.875H137.164C137.264 63.875 137.384 63.89 137.524 63.92C137.664 63.94 137.734 64.01 137.734 64.13V64.16C137.204 64.16 136.684 64.18 136.174 64.22C135.664 64.25 135.144 64.29 134.614 64.34C135.004 64.32 135.389 64.295 135.769 64.265C136.159 64.235 136.549 64.22 136.939 64.22C137.069 64.22 137.194 64.225 137.314 64.235C137.434 64.235 137.559 64.24 137.689 64.25L137.629 64.43C137.689 64.44 137.769 64.455 137.869 64.475C137.969 64.485 138.064 64.51 138.154 64.55C138.254 64.59 138.339 64.64 138.409 64.7C138.479 64.75 138.514 64.815 138.514 64.895C138.514 65.035 138.449 65.13 138.319 65.18C138.189 65.24 138.069 65.295 137.959 65.345C137.809 65.295 137.649 65.265 137.479 65.255C137.319 65.255 137.159 65.255 136.999 65.255C136.649 65.255 136.304 65.27 135.964 65.3C135.644 65.33 135.319 65.36 134.989 65.39C135.229 65.38 135.459 65.37 135.679 65.36C135.929 65.35 136.179 65.345 136.429 65.345C136.649 65.345 136.864 65.35 137.074 65.36C137.294 65.37 137.514 65.395 137.734 65.435C137.554 65.515 137.329 65.575 137.059 65.615C136.799 65.655 136.524 65.685 136.234 65.705C135.954 65.725 135.674 65.735 135.394 65.735C135.114 65.745 134.869 65.755 134.659 65.765L134.524 65.615C134.304 65.665 134.084 65.695 133.864 65.705C133.644 65.725 133.419 65.735 133.189 65.735C132.949 65.735 132.709 65.725 132.469 65.705C132.229 65.685 131.994 65.655 131.764 65.615C131.654 65.495 131.544 65.375 131.434 65.255C131.324 65.145 131.204 65.035 131.074 64.925C131.074 64.205 131.054 63.495 131.014 62.795C130.984 62.095 130.944 61.385 130.894 60.665H130.804ZM133.999 65.465C133.759 65.475 133.509 65.48 133.249 65.48C132.939 65.48 132.649 65.47 132.379 65.45C132.109 65.43 131.919 65.395 131.809 65.345L131.359 64.91L131.224 63.14V63.47C131.224 63.7 131.239 63.93 131.269 64.16C131.299 64.39 131.314 64.62 131.314 64.85V64.94C131.394 65.02 131.469 65.1 131.539 65.18C131.619 65.26 131.694 65.345 131.764 65.435H131.869C132.089 65.435 132.304 65.445 132.514 65.465C132.734 65.495 132.954 65.51 133.174 65.51C133.404 65.51 133.629 65.5 133.849 65.48C133.929 65.48 134.014 65.475 134.104 65.465H133.999ZM132.724 64.415C132.774 64.425 132.824 64.435 132.874 64.445C132.934 64.445 132.994 64.445 133.054 64.445C133.314 64.445 133.574 64.44 133.834 64.43C134.094 64.42 134.354 64.39 134.614 64.34C134.294 64.36 133.979 64.37 133.669 64.37C133.359 64.37 133.044 64.375 132.724 64.385V64.415ZM131.719 65.72C131.889 65.77 132.064 65.8 132.244 65.81C132.434 65.83 132.629 65.84 132.829 65.84C132.949 65.84 133.064 65.835 133.174 65.825C133.274 65.825 133.369 65.825 133.459 65.825C133.399 65.835 133.329 65.84 133.249 65.84C133.169 65.85 133.089 65.855 133.009 65.855H132.709C132.589 65.855 132.464 65.85 132.334 65.84C132.214 65.83 132.094 65.82 131.974 65.81C131.864 65.8 131.784 65.785 131.734 65.765C131.704 65.735 131.654 65.68 131.584 65.6C131.514 65.53 131.439 65.455 131.359 65.375C131.279 65.295 131.204 65.215 131.134 65.135C131.074 65.065 131.039 65.02 131.029 65L131.719 65.72ZM132.334 64.355L132.004 64.295C132.064 64.315 132.154 64.355 132.274 64.415C132.394 64.465 132.484 64.495 132.544 64.505L132.499 64.34L132.334 64.355ZM147.592 63.995C147.592 63.935 147.627 63.88 147.697 63.83C147.767 63.78 147.847 63.735 147.937 63.695C148.037 63.655 148.132 63.62 148.222 63.59C148.322 63.56 148.397 63.535 148.447 63.515C148.927 63.575 149.407 63.625 149.887 63.665C150.367 63.705 150.847 63.725 151.327 63.725C151.507 63.725 151.757 63.725 152.077 63.725C152.397 63.715 152.747 63.695 153.127 63.665C153.507 63.635 153.892 63.59 154.282 63.53C154.672 63.46 155.027 63.365 155.347 63.245C155.667 63.125 155.927 62.975 156.127 62.795C156.327 62.615 156.427 62.39 156.427 62.12C156.427 61.9 156.377 61.705 156.277 61.535C156.187 61.355 156.062 61.2 155.902 61.07C155.752 60.93 155.582 60.815 155.392 60.725C155.322 60.685 155.247 60.65 155.167 60.62C155.247 60.66 155.322 60.7 155.392 60.74C155.572 60.84 155.732 60.965 155.872 61.115C156.022 61.255 156.142 61.415 156.232 61.595C156.322 61.765 156.367 61.96 156.367 62.18C156.367 62.42 156.277 62.625 156.097 62.795C155.927 62.955 155.702 63.09 155.422 63.2C155.152 63.31 154.847 63.395 154.507 63.455C154.177 63.515 153.847 63.56 153.517 63.59C153.187 63.62 152.882 63.64 152.602 63.65C152.322 63.65 152.102 63.65 151.942 63.65C151.432 63.65 150.917 63.635 150.397 63.605C149.887 63.565 149.377 63.52 148.867 63.47C149.047 63.42 149.227 63.385 149.407 63.365C149.597 63.335 149.787 63.32 149.977 63.32C150.297 63.32 150.612 63.325 150.922 63.335C151.232 63.335 151.542 63.335 151.852 63.335C152.222 63.335 152.587 63.33 152.947 63.32C153.307 63.3 153.677 63.26 154.057 63.2L154.102 63.38C154.252 63.35 154.442 63.305 154.672 63.245C154.902 63.175 155.122 63.09 155.332 62.99C155.552 62.89 155.737 62.765 155.887 62.615C156.047 62.465 156.127 62.29 156.127 62.09C156.127 61.8 156.022 61.545 155.812 61.325C155.602 61.105 155.332 60.91 155.002 60.74C154.682 60.56 154.317 60.405 153.907 60.275C153.497 60.145 153.092 60.03 152.692 59.93C152.302 59.83 151.932 59.74 151.582 59.66C151.232 59.58 150.952 59.505 150.742 59.435V59.525C150.952 59.605 151.227 59.69 151.567 59.78C151.907 59.86 152.272 59.95 152.662 60.05C153.062 60.15 153.462 60.265 153.862 60.395C154.262 60.515 154.622 60.66 154.942 60.83C155.272 61 155.537 61.195 155.737 61.415C155.947 61.635 156.052 61.885 156.052 62.165C156.052 62.325 155.977 62.465 155.827 62.585C155.677 62.705 155.497 62.81 155.287 62.9C155.087 62.98 154.882 63.045 154.672 63.095C154.462 63.145 154.302 63.18 154.192 63.2C154.322 63.17 154.487 63.13 154.687 63.08C154.897 63.02 155.097 62.945 155.287 62.855C155.487 62.765 155.657 62.66 155.797 62.54C155.937 62.41 156.007 62.26 156.007 62.09C156.007 61.81 155.897 61.575 155.677 61.385C155.457 61.195 155.167 61.025 154.807 60.875C154.447 60.725 154.037 60.59 153.577 60.47C153.117 60.35 152.642 60.22 152.152 60.08C151.672 59.94 151.202 59.78 150.742 59.6C150.282 59.42 149.872 59.195 149.512 58.925C149.152 58.655 148.862 58.335 148.642 57.965C148.422 57.595 148.312 57.15 148.312 56.63C148.312 56.12 148.432 55.69 148.672 55.34C148.922 54.98 149.237 54.69 149.617 54.47C150.007 54.24 150.432 54.075 150.892 53.975C151.352 53.875 151.797 53.825 152.227 53.825C152.857 53.825 153.472 53.915 154.072 54.095C154.682 54.275 155.257 54.525 155.797 54.845C155.737 54.865 155.702 54.895 155.692 54.935C155.682 54.965 155.672 55 155.662 55.04C155.662 55.08 155.652 55.115 155.632 55.145C155.622 55.175 155.592 55.19 155.542 55.19C155.502 55.19 155.422 55.175 155.302 55.145C155.192 55.105 155.072 55.065 154.942 55.025C154.812 54.975 154.687 54.93 154.567 54.89C154.447 54.85 154.367 54.82 154.327 54.8L154.282 54.935C154.372 54.975 154.487 55.035 154.627 55.115C154.777 55.185 154.917 55.275 155.047 55.385C155.187 55.485 155.302 55.595 155.392 55.715C155.492 55.835 155.542 55.955 155.542 56.075C155.542 56.205 155.482 56.27 155.362 56.27C155.212 56.27 155.032 56.23 154.822 56.15C154.622 56.07 154.397 55.985 154.147 55.895C153.897 55.795 153.627 55.705 153.337 55.625C153.057 55.545 152.772 55.505 152.482 55.505C152.292 55.505 152.067 55.525 151.807 55.565C151.557 55.595 151.312 55.66 151.072 55.76C150.842 55.85 150.647 55.98 150.487 56.15C150.327 56.31 150.247 56.515 150.247 56.765C150.247 56.995 150.352 57.19 150.562 57.35C150.782 57.51 151.067 57.655 151.417 57.785C151.777 57.915 152.182 58.04 152.632 58.16C153.082 58.28 153.542 58.415 154.012 58.565C154.492 58.705 154.957 58.87 155.407 59.06C155.857 59.25 156.257 59.48 156.607 59.75C156.967 60.02 157.252 60.34 157.462 60.71C157.682 61.08 157.792 61.515 157.792 62.015C157.792 62.505 157.692 62.92 157.492 63.26C157.292 63.6 157.027 63.885 156.697 64.115C156.367 64.335 155.992 64.51 155.572 64.64C155.152 64.76 154.717 64.855 154.267 64.925C153.827 64.985 153.387 65.02 152.947 65.03C152.517 65.05 152.127 65.06 151.777 65.06H150.277C150.187 65.06 150.062 65.055 149.902 65.045C149.752 65.045 149.602 65.035 149.452 65.015C149.302 65.005 149.172 64.98 149.062 64.94C148.952 64.9 148.897 64.85 148.897 64.79L148.912 64.715C149.322 64.735 149.727 64.755 150.127 64.775C150.527 64.785 150.932 64.79 151.342 64.79C151.722 64.79 152.102 64.79 152.482 64.79C152.822 64.78 153.162 64.76 153.502 64.73C153.332 64.74 153.162 64.75 152.992 64.76C152.782 64.76 152.577 64.76 152.377 64.76H151.777C150.837 64.76 149.912 64.73 149.002 64.67C149.022 64.59 149.032 64.535 149.032 64.505C149.032 64.465 149.022 64.425 149.002 64.385C148.982 64.385 148.952 64.39 148.912 64.4C148.882 64.4 148.842 64.4 148.792 64.4C148.682 64.4 148.557 64.395 148.417 64.385C148.287 64.375 148.157 64.355 148.027 64.325C147.907 64.295 147.802 64.255 147.712 64.205C147.632 64.145 147.592 64.075 147.592 63.995ZM156.802 63.605C156.632 63.755 156.452 63.88 156.262 63.98C156.092 64.07 155.917 64.155 155.737 64.235C155.917 64.175 156.092 64.105 156.262 64.025C156.452 63.945 156.632 63.805 156.802 63.605Z" fill="#E0B973"/>
<path d="M13.068 11.192C12.276 10.76 11.04 10.544 9.36 10.544C7.704 10.544 6.348 10.988 5.292 11.876C5.004 12.332 4.86 12.992 4.86 13.856C4.86 15.704 5.844 17 7.812 17.744L12.492 19.544C15.564 20.72 17.1 22.844 17.1 25.916C17.1 28.004 16.368 29.588 14.904 30.668C13.44 31.748 11.544 32.288 9.216 32.288C6 32.288 3.348 31.304 1.26 29.336L3.564 25.412L4.428 25.664L4.968 29.12C5.856 29.744 7.14 30.056 8.82 30.056C12.396 30.056 14.184 28.844 14.184 26.42C14.184 25.436 13.872 24.632 13.248 24.008C12.624 23.384 11.652 22.82 10.332 22.316L6.192 20.732C3.384 19.652 1.98 17.708 1.98 14.9C1.98 12.788 2.724 11.168 4.212 10.04C5.7 8.888 7.596 8.312 9.9 8.312C12.708 8.312 14.964 9.296 16.668 11.264L14.112 14.828L13.248 14.576L13.068 11.192ZM46.0657 11.588V29.948L49.1617 31.208L48.9457 32H40.1257L39.9097 31.208L41.8897 30.38C42.3217 30.212 42.6097 30.032 42.7537 29.84C42.9217 29.648 43.0057 29.372 43.0057 29.012V21.056H31.3777V29.948L34.4737 31.208L34.2577 32H25.4377L25.2217 31.208L27.2017 30.38C27.6337 30.212 27.9217 30.032 28.0657 29.84C28.2337 29.648 28.3177 29.372 28.3177 29.012V10.652L25.2217 9.392L25.4377 8.6H34.2577L34.4737 9.392L32.4937 10.22C32.0617 10.388 31.7617 10.568 31.5937 10.76C31.4497 10.952 31.3777 11.228 31.3777 11.588V19.004H43.0057V10.652L39.9097 9.392L40.1257 8.6H48.9457L49.1617 9.392L47.1817 10.22C46.7497 10.388 46.4497 10.568 46.2817 10.76C46.1377 10.952 46.0657 11.228 46.0657 11.588ZM63.18 11.552V19.328C65.46 19.328 67.776 19.22 70.128 19.004L71.28 18.896L71.676 19.328L71.28 21.344C68.424 21.176 65.724 21.092 63.18 21.092V30.128L70.992 29.984L72.72 26.816L73.8 27.068V32H57.24L57.024 31.208L59.004 30.38C59.436 30.212 59.724 30.032 59.868 29.84C60.036 29.648 60.12 29.372 60.12 29.012V10.652L57.024 9.392L57.24 8.6H73.62V13.532L72.54 13.784L70.812 10.616L64.152 10.472C63.504 10.472 63.18 10.832 63.18 11.552ZM90.2852 21.848H88.1972V29.948L91.1852 31.208L90.9692 32H82.2572L82.0412 31.208L84.0212 30.38C84.4532 30.212 84.7412 30.032 84.8852 29.84C85.0532 29.648 85.1372 29.372 85.1372 29.012V10.652L82.0412 9.392L82.2572 8.6C86.2172 8.408 88.9292 8.312 90.3932 8.312C96.6092 8.312 99.7172 10.544 99.7172 15.008C99.7172 18.536 97.8212 20.72 94.0292 21.56C94.2932 21.8 94.5332 22.148 94.7492 22.604C96.3812 25.94 97.5932 28.1 98.3852 29.084C99.1772 30.068 100.401 30.74 102.057 31.1L101.805 32L97.7732 32.288C96.4772 31.232 95.4932 30.188 94.8212 29.156C94.1732 28.124 93.0932 26.012 91.5812 22.82C91.2692 22.172 90.8372 21.848 90.2852 21.848ZM88.1972 11.192V20.012H90.5372C92.3132 20.012 93.7052 19.808 94.7132 19.4C95.2412 19.016 95.6492 18.572 95.9372 18.068C96.2252 17.54 96.3692 16.772 96.3692 15.764C96.3692 14.204 95.9492 12.908 95.1092 11.876C94.2932 10.82 92.9372 10.292 91.0412 10.292H89.1692C88.5212 10.292 88.1972 10.592 88.1972 11.192ZM124.615 29.48C124.615 29.336 124.579 29.18 124.507 29.012L122.887 24.44H114.535L112.627 29.948L115.723 31.208L115.507 32H107.551L107.335 31.208L109.315 30.38C109.723 30.212 109.975 30.056 110.071 29.912C110.191 29.768 110.335 29.468 110.503 29.012L117.703 8.96L119.899 8.312L120.619 8.6L128.359 30.056L131.167 31.208L130.951 32H122.131L121.915 31.208L123.895 30.38C124.375 30.188 124.615 29.888 124.615 29.48ZM118.675 12.488L115.147 22.604H122.239L118.675 12.488ZM153.583 8.6V13.532L152.719 13.784L150.919 10.436L146.995 10.328C146.683 10.304 146.443 10.388 146.275 10.58C146.107 10.772 146.023 11 146.023 11.264V29.948L149.119 31.208L148.903 32H140.083L139.867 31.208L141.847 30.38C142.279 30.212 142.567 30.032 142.711 29.84C142.879 29.648 142.963 29.372 142.963 29.012V10.292L138.067 10.436L136.267 13.784L135.403 13.532V8.6H153.583ZM166.62 11.948C165.132 13.988 164.388 16.616 164.388 19.832C164.388 23.048 165.06 25.556 166.404 27.356C167.772 29.156 169.74 30.056 172.308 30.056C174.444 30.056 176.184 29.612 177.528 28.724C179.016 26.9 179.76 24.332 179.76 21.02C179.76 17.684 179.076 15.116 177.708 13.316C176.364 11.516 174.42 10.616 171.876 10.616C169.764 10.616 168.012 11.06 166.62 11.948ZM161.04 20.48C161.04 18.464 161.352 16.664 161.976 15.08C162.6 13.496 163.44 12.224 164.496 11.264C166.704 9.296 169.356 8.312 172.452 8.312C175.572 8.312 178.128 9.368 180.12 11.48C182.112 13.592 183.108 16.496 183.108 20.192C183.108 22.208 182.796 24.008 182.172 25.592C181.548 27.152 180.696 28.412 179.616 29.372C177.456 31.316 174.816 32.288 171.696 32.288C168.576 32.288 166.02 31.244 164.028 29.156C162.036 27.068 161.04 24.176 161.04 20.48ZM212.424 11.588V32L209.832 32.288L196.512 13.352V29.948L199.608 31.208L199.392 32H191.256L191.04 31.208L193.02 30.38C193.452 30.212 193.74 30.032 193.884 29.84C194.052 29.648 194.136 29.372 194.136 29.012V10.652L191.04 9.392L191.256 8.6H197.268L210.012 26.744V26.816L210.048 26.744V10.652L206.952 9.392L207.168 8.6H215.304L215.52 9.392L213.54 10.22C213.108 10.388 212.808 10.568 212.64 10.76C212.496 10.952 212.424 11.228 212.424 11.588Z" fill="#E0B973"/>
</svg>
