<svg width="61" height="61" viewBox="0 0 61 61" fill="none" xmlns="http://www.w3.org/2000/svg">
<path d="M30.4814 60.8412C23.4464 60.8351 16.6296 58.3978 11.1854 53.942C5.7413 49.4862 2.00438 43.2859 0.607498 36.3909C-0.789388 29.4959 0.239603 22.33 3.52022 16.1066C6.80084 9.8833 12.1315 4.985 18.6094 2.2412C26.0375 -0.774814 34.3542 -0.745774 41.761 2.32205C49.1678 5.38987 55.0693 11.2499 58.1894 18.6348C61.3095 26.0198 61.3973 34.3361 58.4338 41.7852C55.4704 49.2344 49.6938 55.2177 42.3534 58.4412C38.5979 60.0319 34.5599 60.8482 30.4814 60.8412ZM18.2584 20.5962L13.2414 25.4962L30.0814 41.9412L46.9224 25.4912L41.9054 20.5912L30.0814 32.1412L18.2584 20.5962Z" fill="#E0B973"/>
</svg>
