<svg width="27" height="27" viewBox="0 0 27 27" fill="none" xmlns="http://www.w3.org/2000/svg">
<g clip-path="url(#clip0)">
<path d="M11.5164 7.0177C11.145 6.5371 10.8215 6.15205 10.555 5.87324C10.1761 5.47695 9.86256 5.23132 9.47086 5.23132C9.07915 5.23132 8.76563 5.47695 8.38675 5.87319C8.12018 6.15199 7.79669 6.53705 7.42535 7.0177C6.64142 8.03216 5.76211 9.31747 4.94938 10.6367C3.66786 12.7169 1.51807 16.5756 1.51807 19.0472C1.51807 23.4324 5.08564 27 9.4708 27C13.856 27 17.4235 23.4324 17.4235 19.0472C17.4235 16.5757 15.2737 12.7169 13.9922 10.6367C13.1795 9.31747 12.3002 8.03222 11.5164 7.0177Z" fill="#0A5295"/>
<path d="M23.6037 3.04836C23.1653 2.33665 22.6902 1.6423 22.2659 1.09323C21.6106 0.245203 21.301 0 20.8856 0C20.4702 0 20.1606 0.245203 19.5053 1.09323C19.0811 1.6423 18.606 2.3366 18.1675 3.04836C17.3107 4.43924 16.2893 6.37733 16.2893 7.7116C16.2893 10.246 18.3512 12.3079 20.8856 12.3079C23.42 12.3079 25.4819 10.246 25.4819 7.7116C25.4819 6.37728 24.4605 4.43924 23.6037 3.04836Z" fill="#0A5295"/>
</g>
<defs>
<clipPath id="clip0">
<rect width="27" height="27" fill="white"/>
</clipPath>
</defs>
</svg>
