<svg width="10" height="14" viewBox="0 0 10 14" fill="none" xmlns="http://www.w3.org/2000/svg">
<path d="M3.6515 7.00296L8.88887 1.76537C9.03308 1.6215 9.11241 1.42914 9.11241 1.22403C9.11241 1.01881 9.03308 0.826569 8.88887 0.682472L8.42994 0.223772C8.28596 0.0794472 8.09349 0 7.88838 0C7.68328 0 7.49103 0.0794472 7.34693 0.223772L1.11102 6.45958C0.966349 6.60413 0.887129 6.79728 0.887698 7.00262C0.887129 7.20886 0.966235 7.40179 1.11102 7.54646L7.34113 13.7762C7.48523 13.9206 7.67747 14 7.88269 14C8.0878 14 8.28004 13.9206 8.42425 13.7762L8.88306 13.3175C9.18162 13.019 9.18162 12.533 8.88306 12.2345L3.6515 7.00296Z" fill="#CBCFD3"/>
</svg>
