<svg width="58" height="58" viewBox="0 0 58 58" fill="none" xmlns="http://www.w3.org/2000/svg">
<g clip-path="url(#clip0)" filter="url(#filter0_d)">
<path d="M29.0005 4C19.6571 4 12.0005 11.6566 12.0005 21C12.0005 30.3434 19.6571 38 29.0005 38C38.3438 38 46.0005 30.3434 46.0005 21C46.0005 11.6566 38.3438 4 29.0005 4Z" fill="white"/>
<path d="M46.0005 21C46.0005 30.3434 38.3438 38 29.0005 38V4C38.3438 4 46.0005 11.6566 46.0005 21Z" fill="#F2F2F2"/>
<path d="M31.8095 21L37.4474 26.6379L34.6385 29.4468L29.0006 23.8089L23.3626 29.4468L20.5537 26.6379L26.1917 21L20.5537 15.362L23.3626 12.5531L29.0006 18.1911L34.6385 12.5531L37.4474 15.362L31.8095 21Z" fill="#072E52"/>
<path d="M31.8094 21L37.4474 26.6379L34.6384 29.4468L29.0005 23.8089V18.1911L34.6384 12.5531L37.4474 15.362L31.8094 21Z" fill="#072E52"/>
</g>
<defs>
<filter id="filter0_d" x="0.000488281" y="0" width="58" height="58" filterUnits="userSpaceOnUse" color-interpolation-filters="sRGB">
<feFlood flood-opacity="0" result="BackgroundImageFix"/>
<feColorMatrix in="SourceAlpha" type="matrix" values="0 0 0 0 0 0 0 0 0 0 0 0 0 0 0 0 0 0 127 0"/>
<feOffset dy="8"/>
<feGaussianBlur stdDeviation="6"/>
<feColorMatrix type="matrix" values="0 0 0 0 0 0 0 0 0 0 0 0 0 0 0 0 0 0 0.09 0"/>
<feBlend mode="normal" in2="BackgroundImageFix" result="effect1_dropShadow"/>
<feBlend mode="normal" in="SourceGraphic" in2="effect1_dropShadow" result="shape"/>
</filter>
<clipPath id="clip0">
<rect width="34" height="34" fill="white" transform="translate(12.0005 4)"/>
</clipPath>
</defs>
</svg>
