<svg width="27" height="27" viewBox="0 0 27 27" fill="none" xmlns="http://www.w3.org/2000/svg">
<g clip-path="url(#clip0)">
<path d="M8.09839 4.7414L8.65764 4.18215C9.02203 3.81776 8.94509 3.20842 8.50545 2.94464L4.26852 0.402379C3.15614 -0.263495 1.74097 -0.0896832 0.827139 0.826468C-0.0890118 1.74188 -0.262824 3.15705 0.403051 4.26785L2.94526 8.50409C3.20935 8.94426 3.8217 9.02057 4.18277 8.65628L4.74281 8.09703L9.0224 12.3701L12.3742 9.01793L8.09839 4.7414Z" fill="#0A5295"/>
<path d="M26.4615 3.15009C26.2291 2.66256 25.5771 2.54117 25.1884 2.93145L23.1421 4.97775C22.8424 5.27749 22.3233 5.27749 22.0236 4.97775C21.7153 4.66952 21.7153 4.16744 22.0236 3.85921L24.0699 1.81291C24.4548 1.428 24.3442 0.774839 23.8512 0.539855C21.7369 -0.470532 19.2048 -0.0356329 17.5486 1.62207C16.0276 3.14229 15.5363 5.40179 16.2469 7.39709L7.39714 16.2466C5.40336 15.5359 3.14312 16.0272 1.62211 17.5482C-0.0348553 19.2052 -0.469754 21.7381 0.539895 23.8508C0.775459 24.345 1.42905 24.4533 1.81295 24.0695L3.85925 22.0232C4.16822 21.7157 4.67036 21.7149 4.9778 22.024C5.28592 22.3305 5.28819 22.8297 4.9778 23.1417L2.9315 25.188C2.54659 25.5729 2.65717 26.2261 3.15013 26.4611C3.9094 26.824 4.72283 27.0002 5.53082 27.0002C6.97073 27.0002 8.39128 26.4401 9.45187 25.3788C10.9736 23.8585 11.4642 21.599 10.7535 19.6037L19.6035 10.7544C21.5965 11.4643 23.8575 10.9737 25.3792 9.45272C27.0362 7.79576 27.4711 5.26283 26.4615 3.15009Z" fill="#0A5295"/>
<path d="M25.8322 20.3113C23.147 17.6359 21.6749 16.573 18.5272 14.1251L14.0537 18.599C16.2663 21.4393 17.6061 23.2712 20.119 25.785C20.9409 26.6069 22.0332 26.9903 23.1077 26.9903C23.8964 26.9903 24.675 26.803 25.3293 26.3327C26.2833 25.6452 26.8843 24.5861 26.9778 23.4282C27.0712 22.2687 26.6541 21.1331 25.8322 20.3113ZM23.5538 23.557C23.2389 23.8439 22.7482 23.8164 22.447 23.5152L19.3143 20.3825C19.0131 20.0813 18.9856 19.5906 19.2724 19.2757C19.5787 18.9395 20.0993 18.9304 20.4171 19.2482L23.5812 22.4123C23.8991 22.7302 23.8899 23.2508 23.5538 23.557Z" fill="#0A5295"/>
</g>
<defs>
<clipPath id="clip0">
<rect width="27" height="27" fill="white"/>
</clipPath>
</defs>
</svg>
