<svg width="30" height="30" viewBox="0 0 30 30" fill="none" xmlns="http://www.w3.org/2000/svg">
<g clip-path="url(#clip0)">
<path d="M23.9573 19.9036L21.0998 17.049C19.7196 15.67 17.5882 15.5557 16.3486 16.7942L15.3758 17.7659C14.9822 18.1593 14.2205 18.0626 13.7126 17.555L11.036 14.881C10.4585 14.3041 10.4822 13.5639 10.8248 13.2217L11.7976 12.2499C13.0893 10.9596 12.8749 8.83205 11.5426 7.50091L8.68518 4.64618C7.30493 3.26734 5.17356 3.15301 3.93394 4.39151L1.80151 6.52183C-0.264407 8.58576 -0.585121 11.6265 1.00339 14.0882C2.33518 16.1523 10.2924 24.1235 14.3388 26.971C16.8533 28.7402 20.0929 28.7679 22.0799 26.7829L24.2123 24.6526C25.5039 23.3623 25.2896 21.2347 23.9573 19.9036ZM22.9698 23.4089L20.8373 25.5393C19.5044 26.8712 17.248 26.8685 15.3504 25.5333C11.5197 22.8376 3.71988 15.0561 2.4805 13.1352C1.33483 11.3597 1.55604 9.25203 3.04394 7.7656L5.17637 5.63522C5.77824 5.03393 6.80983 5.25773 7.44264 5.88995L10.3001 8.74462C11.0653 9.50917 11.0442 10.5176 10.555 11.0064L9.58234 11.9781C8.46209 13.0972 8.62043 14.9529 9.79347 16.1247L12.4701 18.7988C13.6575 19.9851 15.5203 20.1067 16.6184 19.0098L17.5911 18.038C18.1456 17.484 19.1623 17.5983 19.8574 18.2928L22.7149 21.1474C23.4831 21.9148 23.4561 22.923 22.9698 23.4089Z" fill="white"/>
<path d="M16.963 5.06804C17.4394 5.16133 17.9011 4.8504 17.9943 4.37393C18.0964 3.85122 18.5549 3.47185 19.0844 3.47185C19.6813 3.47185 20.1697 3.94908 20.1946 4.5451L20.1702 4.73677C20.073 5.12417 19.8436 5.5792 19.488 6.08989C16.7115 10.0766 16.345 10.0395 16.5682 10.7638C16.6562 11.0494 16.8725 11.2687 17.1617 11.3656C17.5146 11.4838 20.1609 11.4512 21.4251 11.4414C21.9106 11.4376 22.301 11.0409 22.2972 10.5555C22.2934 10.0701 21.896 9.68244 21.4114 9.68338C20.6128 9.68965 19.7651 9.69211 19.0678 9.69018C19.5008 9.1087 20.107 8.27723 20.9306 7.09458C21.3797 6.44963 21.9537 5.42221 21.9537 4.59297C21.9537 3.0054 20.6666 1.71387 19.0845 1.71387C17.7161 1.71387 16.532 2.69078 16.269 4.03675C16.1757 4.51316 16.4865 4.97492 16.963 5.06804Z" fill="white"/>
<path d="M29.1214 7.34926H28.985C28.9962 5.43037 29.0021 3.36943 28.9784 3.08476C28.8687 1.76908 27.4358 1.20331 26.5187 2.32742C26.0657 2.88276 23.9689 6.65914 23.3371 7.80335C23.014 8.38841 23.438 9.10725 24.1065 9.10725H27.2152C27.2114 9.62708 27.2074 10.1257 27.2035 10.5753C27.1994 11.0608 27.5895 11.4577 28.0749 11.4619C28.543 11.4722 28.9572 11.0871 28.9615 10.5906C28.9639 10.3142 28.9684 9.77534 28.9734 9.10725H29.1214C29.6069 9.10725 30.0004 8.71369 30.0004 8.22826C30.0004 7.74282 29.6069 7.34926 29.1214 7.34926ZM27.2267 7.34926H25.6008C26.2092 6.26195 26.8029 5.21877 27.2372 4.47854C27.2372 5.24549 27.233 6.27813 27.2267 7.34926Z" fill="white"/>
</g>
<defs>
<clipPath id="clip0">
<rect width="30" height="30" fill="white"/>
</clipPath>
</defs>
</svg>
