<svg width="16" height="14" viewBox="0 0 16 14" fill="none" xmlns="http://www.w3.org/2000/svg">
<path d="M8.00017 0.96344C3.58189 0.96344 0 4.57933 0 9.0398C0 11.4584 1.04376 13.0357 1.04376 13.0357L14.9532 13.0364C14.9532 13.0364 16 11.3125 16 9.03963C16 4.57933 12.4181 0.96344 8.00017 0.96344ZM14.3665 12.0525L1.65918 12.047C1.65918 12.047 0.982062 10.7647 0.982062 9.01432C0.982062 5.10489 4.13613 1.93543 8.02699 1.93543C11.9177 1.93543 15.0719 5.10472 15.0719 9.01432C15.0721 10.7845 14.3665 12.0525 14.3665 12.0525Z" fill="white"/>
<path d="M10.261 3.10808L10.1606 3.10791L8.02662 7.28943L5.81589 3.0722L2.78907 10.6907H2.00684V11.3026H6.29217V10.6907H5.44187L6.29217 8.3097L8.02662 11.3026L9.69317 8.3097L10.5433 10.6907H9.69317V11.3026H13.9443V10.6907H13.2078L10.261 3.10808Z" fill="white"/>
</svg>
