<svg width="27" height="27" viewBox="0 0 27 27" fill="none" xmlns="http://www.w3.org/2000/svg">
<path d="M27 7.64648V5.85352C27 4.99595 26.2514 4.27148 25.3652 4.27148H19.3535C18.4812 4.27148 17.7715 4.98118 17.7715 5.85352V7.64648H27Z" fill="#0A5295"/>
<path d="M17.7715 9.22852V21.1465C17.7715 22.0188 18.4812 22.7285 19.3535 22.7285H25.3652C26.2514 22.7285 27 22.0041 27 21.1465V9.22852H17.7715ZM22.5893 19.3192C22.1972 19.4361 21.7503 19.2456 21.6026 18.7924C21.484 18.3948 21.6835 17.9481 22.13 17.8058C22.5625 17.6742 23.036 17.9325 23.1351 18.408C23.2067 18.7903 23.0102 19.1821 22.5893 19.3192ZM22.5893 15.9442C22.1975 16.061 21.7503 15.8706 21.6026 15.4174C21.484 15.0198 21.6835 14.5731 22.13 14.4308C22.5625 14.2992 23.036 14.5575 23.1351 15.033C23.2067 15.4153 23.0102 15.8071 22.5893 15.9442Z" fill="#0A5295"/>
<path d="M14.3965 4.27148H1.58203C0.709805 4.27148 0 4.98129 0 5.85352V16.5586C0 17.4308 0.709805 18.1406 1.58203 18.1406H14.3965C15.2687 18.1406 15.9785 17.4308 15.9785 16.5586V5.85352C15.9785 4.98129 15.2687 4.27148 14.3965 4.27148Z" fill="#0A5295"/>
<path d="M12.2344 21.1465H10.4941V19.7227H5.53711V21.1465H3.79688C3.36023 21.1465 3.00586 21.5009 3.00586 21.9375C3.00586 22.3741 3.36023 22.7285 3.79688 22.7285H12.2344C12.671 22.7285 13.0254 22.3741 13.0254 21.9375C13.0254 21.5009 12.671 21.1465 12.2344 21.1465Z" fill="#0A5295"/>
</svg>
