<svg width="27" height="27" viewBox="0 0 27 27" fill="none" xmlns="http://www.w3.org/2000/svg">
<path d="M16.3928 18.3215H10.6071C10.0745 18.3215 9.64282 18.7532 9.64282 19.2858C9.64282 19.8184 10.0745 20.2501 10.6071 20.2501H16.3928C16.9254 20.2501 17.3572 19.8184 17.3572 19.2858C17.3572 18.7532 16.9254 18.3215 16.3928 18.3215Z" fill="#0A5295"/>
<path d="M16.3928 21.2143H10.6071C10.0745 21.2143 9.64282 21.646 9.64282 22.1786C9.64282 22.7111 10.0745 23.1429 10.6071 23.1429H16.3928C16.9254 23.1429 17.3572 22.7111 17.3572 22.1786C17.3572 21.646 16.9254 21.2143 16.3928 21.2143Z" fill="#0A5295"/>
<path d="M26.0357 6.75001H21.2143V0.964304C21.2143 0.431725 20.7826 0 20.25 0H6.75001C6.21743 0 5.78571 0.431725 5.78571 0.964304V6.75001H0.964304C0.431725 6.75001 0 7.18174 0 7.71426V20.25C0 20.7826 0.431725 21.2143 0.964304 21.2143H5.78571V26.0357C5.78571 26.5683 6.21743 27 6.75001 27H20.25C20.7826 27 21.2143 26.5683 21.2143 26.0357V21.2143H26.0357C26.5683 21.2143 27 20.7826 27 20.25V7.71426C27 7.18174 26.5683 6.75001 26.0357 6.75001ZM7.71426 1.92855H19.2857V6.74996H7.71426V1.92855ZM22.1785 16.3928H19.2857V25.0714H7.71426V16.3928H4.82141C4.28883 16.3928 3.8571 15.9611 3.8571 15.4285C3.8571 14.8959 4.28888 14.4643 4.82141 14.4643H22.1785C22.7111 14.4643 23.1428 14.896 23.1428 15.4286C23.1428 15.9612 22.7111 16.3928 22.1785 16.3928ZM23.1428 12.5357H22.1785C21.646 12.5357 21.2142 12.104 21.2142 11.5714C21.2142 11.0388 21.646 10.6071 22.1785 10.6071H23.1428C23.6754 10.6071 24.1071 11.0388 24.1071 11.5714C24.1071 12.104 23.6754 12.5357 23.1428 12.5357Z" fill="#0A5295"/>
</svg>
