<svg width="18" height="18" viewBox="0 0 18 18" fill="none" xmlns="http://www.w3.org/2000/svg">
<path d="M17.4818 10.9102C18.7853 5.05273 13.6538 -0.268525 7.6275 0.752975C4.356 -1.27727 0 1.01698 0 4.90948C0 5.81473 0.24975 6.66223 0.684 7.39273C-0.52725 13.2637 4.64625 18.5085 10.6673 17.4172C14.9235 19.668 19.6268 15.1792 17.4818 10.9102ZM11.7533 14.4427C10.1723 15.093 7.5705 15.0967 5.99625 14.2725C3.7515 13.0755 3.3525 10.3807 5.289 10.3807C6.7485 10.3807 6.2865 12.0825 7.76025 12.7762C8.43675 13.089 9.891 13.1212 10.7363 12.5512C11.571 11.9925 11.4945 11.1135 11.0408 10.6935C9.8385 9.58348 6.39825 10.0245 4.8255 8.08122C4.14225 7.23822 4.01325 5.75098 4.85325 4.67248C6.31725 2.78848 10.6133 2.67373 12.4605 4.09648C14.166 5.41648 13.7055 7.16848 12.3293 7.16848C10.674 7.16848 11.544 5.00248 8.87175 5.00248C6.9345 5.00248 6.1725 6.38023 7.53675 7.05072C9.38625 7.96948 14.0993 7.66272 14.0993 11.253C14.0955 12.747 13.1798 13.8607 11.7533 14.4427Z" fill="white"/>
</svg>
