<svg width="27" height="27" viewBox="0 0 27 27" fill="none" xmlns="http://www.w3.org/2000/svg">
<g clip-path="url(#clip0)">
<path d="M1.53611 5.41724L12.9316 7.64677H26.1037C26.1037 6.8189 26.1037 6.26209 26.1037 6.13257C26.1037 5.38175 25.5694 4.72943 24.8374 4.58241L2.79059 0.0316456C1.81048 -0.16542 0.896973 0.58477 0.896973 1.58265V4.64094C0.896973 5.01926 1.16486 5.34462 1.53611 5.41724Z" fill="#0A5295"/>
<path d="M18.6154 26.209V17.6661H8.38501V26.209C8.38501 26.6459 8.73917 27 9.17602 27H17.8244C18.2612 27 18.6154 26.6459 18.6154 26.209Z" fill="#0A5295"/>
<path d="M0.896729 9.2287V21.1465C0.896729 22.0188 1.60642 22.7285 2.47874 22.7285H6.80291V17.6661H5.90644C5.46959 17.6661 5.11543 17.3119 5.11543 16.8751C5.11543 16.4382 5.46959 16.0841 5.90644 16.0841H21.0938C21.5306 16.0841 21.8848 16.4382 21.8848 16.8751C21.8848 17.3119 21.5306 17.6661 21.0938 17.6661H20.1973V22.7285H24.5215C25.3938 22.7285 26.1035 22.0188 26.1035 21.1465C26.1035 20.5854 26.1035 13.4691 26.1035 9.2287H0.896729ZM21.6533 12.3722C21.3358 12.6812 20.8514 12.6809 20.5343 12.3722C20.0923 11.9286 20.3141 11.1667 20.9392 11.037C21.7049 10.8937 22.203 11.8066 21.6533 12.3722Z" fill="#0A5295"/>
</g>
<defs>
<clipPath id="clip0">
<rect width="27" height="27" fill="white"/>
</clipPath>
</defs>
</svg>
