<svg width="20" height="20" viewBox="0 0 20 20" fill="none" xmlns="http://www.w3.org/2000/svg">
<g clip-path="url(#clip0_1616_1056)">
<path d="M14.375 10H11.875C11.5298 10 11.25 10.2798 11.25 10.625V15.625C11.25 15.9702 11.5298 16.25 11.875 16.25H14.375C15.0654 16.25 15.625 15.6904 15.625 15V11.25C15.625 10.5596 15.0654 10 14.375 10ZM14.375 15H12.5V11.25H14.375V15Z" fill="#569884"/>
<path d="M20 11.25V10H16.875C16.5298 10 16.25 10.2798 16.25 10.625V16.25H17.5V13.75H20V12.5H17.5V11.25H20Z" fill="#569884"/>
<path d="M1.25 18.1248V1.87477C1.25 1.52957 1.5298 1.24977 1.875 1.24977H11.25V3.74976C11.25 4.44012 11.8096 4.99976 12.5 4.99976H15V6.87476H16.25V4.37476C16.251 4.20863 16.1857 4.04894 16.0687 3.93101L12.3187 0.181016C12.2008 0.0640236 12.0411 -0.00117167 11.875 -0.000234168H1.875C0.839453 -0.000234168 0 0.839258 0 1.87477V18.1248C0 19.1603 0.839453 19.9998 1.875 19.9998H6.25V18.7498H1.875C1.52984 18.7498 1.25 18.47 1.25 18.1248Z" fill="#569884"/>
<path d="M9.375 10H6.875C6.5298 10 6.25 10.2798 6.25 10.625V16.25H7.5V14.375H9.375C10.0654 14.375 10.625 13.8154 10.625 13.125V11.25C10.625 10.5596 10.0654 10 9.375 10ZM9.375 13.125H7.5V11.25H9.375V13.125Z" fill="#569884"/>
</g>
<defs>
<clipPath id="clip0_1616_1056">
<rect width="20" height="20" fill="white"/>
</clipPath>
</defs>
</svg>
