<svg width="31" height="31" viewBox="0 0 31 31" fill="none" xmlns="http://www.w3.org/2000/svg">
<path d="M27.5555 24.9721H3.44436C3.21598 24.9721 2.99696 24.8814 2.83547 24.7199C2.67398 24.5584 2.58325 24.3394 2.58325 24.111C2.58325 23.8826 2.67398 23.6636 2.83547 23.5021C2.99696 23.3406 3.21598 23.2499 3.44436 23.2499H27.5555C27.7839 23.2499 28.0029 23.3406 28.1644 23.5021C28.3259 23.6636 28.4166 23.8826 28.4166 24.111C28.4166 24.3394 28.3259 24.5584 28.1644 24.7199C28.0029 24.8814 27.7839 24.9721 27.5555 24.9721Z" fill="#878282"/>
<path d="M27.5555 16.3613H3.44436C3.21598 16.3613 2.99696 16.2706 2.83547 16.1091C2.67398 15.9476 2.58325 15.7286 2.58325 15.5002C2.58325 15.2718 2.67398 15.0528 2.83547 14.8913C2.99696 14.7298 3.21598 14.6391 3.44436 14.6391H27.5555C27.7839 14.6391 28.0029 14.7298 28.1644 14.8913C28.3259 15.0528 28.4166 15.2718 28.4166 15.5002C28.4166 15.7286 28.3259 15.9476 28.1644 16.1091C28.0029 16.2706 27.7839 16.3613 27.5555 16.3613Z" fill="#878282"/>
<path d="M27.5555 7.75044H3.44436C3.21598 7.75044 2.99696 7.65971 2.83547 7.49822C2.67398 7.33673 2.58325 7.11771 2.58325 6.88932C2.58325 6.66094 2.67398 6.44192 2.83547 6.28043C2.99696 6.11894 3.21598 6.02821 3.44436 6.02821H27.5555C27.7839 6.02821 28.0029 6.11894 28.1644 6.28043C28.3259 6.44192 28.4166 6.66094 28.4166 6.88932C28.4166 7.11771 28.3259 7.33673 28.1644 7.49822C28.0029 7.65971 27.7839 7.75044 27.5555 7.75044Z" fill="#878282"/>
</svg>
