<svg width="30" height="30" viewBox="0 0 30 30" fill="none" xmlns="http://www.w3.org/2000/svg">
<rect width="30" height="30" rx="2" fill="#FFC700"/>
<g clip-path="url(#clip0)">
<path d="M9.54073 15.6608C9.08098 16.5646 9.60298 16.9966 10.794 17.7346C11.8065 18.3601 13.2052 18.5888 14.1037 18.6803C13.7355 19.0343 15.423 17.4113 10.563 22.0861C9.53248 23.0738 11.1915 24.6586 12.2212 23.6918L15.009 21.0031C16.0762 22.0298 17.0992 23.0138 17.7967 23.6956C18.8272 24.6661 20.4855 23.0948 19.4662 22.0898C19.3897 22.0171 15.6885 18.4666 15.9142 18.6841C16.824 18.5926 18.2017 18.3503 19.2022 17.7383L19.2015 17.7376C20.3925 16.9958 20.9145 16.5646 20.4615 15.6608C20.1877 15.1478 19.4497 14.7188 18.4672 15.4606C18.4672 15.4606 17.1405 16.4768 15.0007 16.4768C12.8602 16.4768 11.5342 15.4606 11.5342 15.4606C10.5525 14.7151 9.81148 15.1478 9.54073 15.6608Z" fill="#F1F3FC"/>
<path d="M14.9993 15.1065C17.6078 15.1065 19.7378 13.068 19.7378 10.5585C19.7378 8.0385 17.6078 6 14.9993 6C12.39 6 10.26 8.0385 10.26 10.5585C10.26 13.068 12.39 15.1065 14.9993 15.1065ZM14.9993 8.30925C16.281 8.30925 17.3265 9.315 17.3265 10.5585C17.3265 11.7915 16.281 12.7972 14.9993 12.7972C13.7175 12.7972 12.672 11.7915 12.672 10.5585C12.6713 9.31425 13.7168 8.30925 14.9993 8.30925Z" fill="#F1F3FC"/>
</g>
<defs>
<clipPath id="clip0">
<rect width="18" height="18" fill="white" transform="translate(6 6)"/>
</clipPath>
</defs>
</svg>
