<svg width="80" height="80" viewBox="0 0 80 80" fill="none" xmlns="http://www.w3.org/2000/svg">
<g clip-path="url(#clip0)">
<path d="M23.2195 64.5845L17.7538 63.7923L15.3106 58.8545C14.9566 58.1392 14.24 57.6948 13.4411 57.6948C12.6415 57.6948 11.9256 58.1392 11.5709 58.8545L9.12769 63.7923L3.66259 64.5845C2.87036 64.6992 2.2246 65.2431 1.97802 66.0036C1.73144 66.7635 1.93408 67.5813 2.5072 68.1386L6.45984 71.9808L5.52722 77.4056C5.39172 78.1917 5.7085 78.9717 6.35425 79.4417C6.72046 79.7084 7.14893 79.8433 7.58045 79.8433C7.91187 79.8433 8.24451 79.764 8.55213 79.6028L13.4411 77.0394L18.33 79.6028C19.0386 79.9745 19.8809 79.9123 20.5273 79.4417C21.173 78.9717 21.4898 78.1917 21.3549 77.4056L20.4217 71.9808L24.3743 68.1386C24.9474 67.5813 25.1501 66.7635 24.9035 66.0036C24.6569 65.2431 24.0118 64.6992 23.2195 64.5845ZM18.6895 70.3969C18.1969 70.8754 17.9723 71.5651 18.0889 72.242L18.9562 77.2847L14.4103 74.9013C14.107 74.7426 13.7743 74.6633 13.4411 74.6633C13.1084 74.6633 12.7752 74.7426 12.4718 74.9019L7.92652 77.2847L8.79322 72.2426C8.9098 71.5657 8.6858 70.8754 8.19263 70.3969L4.52197 66.8281L9.59766 66.0927C10.277 65.9944 10.8641 65.5684 11.1681 64.9538L13.4411 60.3608L15.714 64.9544C16.0186 65.5684 16.6057 65.9944 17.2844 66.0927L22.3601 66.8281L18.6895 70.3969Z" fill="#0572CB"/>
<path d="M49.7833 64.5845L44.3183 63.7922L41.8744 58.8551C41.5204 58.1392 40.8038 57.6948 40.0049 57.6948C39.2053 57.6948 38.4894 58.1392 38.1348 58.8545L35.6915 63.7922L30.2264 64.5845C29.4342 64.6992 28.7884 65.2431 28.5419 66.0036C28.2953 66.7634 28.4979 67.5813 29.071 68.1386L33.0237 71.9807L32.0911 77.4056C31.9556 78.1917 32.2729 78.9723 32.9181 79.4423C33.2843 79.7084 33.7128 79.8439 34.1443 79.8439C34.4757 79.8439 34.8084 79.764 35.116 79.6028L40.0049 77.0393L44.8932 79.6028C45.6024 79.9745 46.4447 79.9123 47.0911 79.4417C47.7368 78.9723 48.0536 78.1917 47.9187 77.4056L46.9855 71.9807L50.9381 68.1386C51.5113 67.5813 51.7139 66.7634 51.4679 66.0036C51.2207 65.2431 50.5756 64.6992 49.7833 64.5845ZM39.7742 59.8945C39.7736 59.8945 39.7742 59.8945 39.7742 59.8945V59.8945ZM45.2533 70.3963C44.7608 70.8748 44.5361 71.5651 44.6521 72.242L45.5194 77.2847L40.9741 74.9013C40.6708 74.7426 40.3381 74.6632 40.0049 74.6632C39.6722 74.6632 39.339 74.7426 39.0357 74.9019L34.4897 77.2847L35.3577 72.242C35.4736 71.5651 35.249 70.8754 34.7565 70.3969L31.0858 66.8281L36.1615 66.0927C36.8408 65.9944 37.428 65.5684 37.7319 64.9538L40.0049 60.3608L42.2778 64.9538C42.5818 65.5684 43.169 65.9944 43.8483 66.0927L48.924 66.8281L45.2533 70.3963Z" fill="#0572CB"/>
<path d="M78.1733 66.0036C77.9267 65.2431 77.281 64.6992 76.4887 64.5845L71.0236 63.7922L68.5804 58.8551C68.2258 58.1392 67.5092 57.6948 66.7103 57.6948C65.9113 57.6948 65.1948 58.1392 64.8408 58.8545L62.3969 63.7922L56.9318 64.5845C56.1396 64.6992 55.4938 65.2431 55.2473 66.0036C55.0007 66.7634 55.2039 67.5813 55.777 68.1386L59.7297 71.9807L58.7965 77.4056C58.6616 78.1917 58.9783 78.9723 59.6235 79.4423C59.9903 79.7084 60.4182 79.8439 60.8503 79.8439C61.1811 79.8439 61.5137 79.764 61.8214 79.6028L66.7103 77.0393L71.5992 79.6028C72.3078 79.9745 73.1495 79.9123 73.7965 79.4417C74.4422 78.9723 74.759 78.1917 74.6241 77.4056C74.5142 76.7677 73.91 76.3399 73.2703 76.4491C72.7918 76.5315 72.4311 76.8929 72.3274 77.3384L67.6795 74.9013C67.0728 74.5833 66.3483 74.5833 65.741 74.9013L61.1957 77.2841L62.0631 72.2414C62.179 71.5645 61.9544 70.8748 61.4619 70.3963L57.7912 66.8281L62.8669 66.0927C63.5462 65.9944 64.1334 65.5684 64.4373 64.9538L66.7103 60.3608L68.9832 64.9538C69.2872 65.5684 69.875 65.9944 70.5537 66.0927L75.63 66.8281L71.9593 70.3963C71.4668 70.8748 71.2415 71.5651 71.3581 72.242L71.6425 73.8979C71.7524 74.5357 72.3585 74.9641 72.9963 74.8543C73.6341 74.7444 74.0626 74.1383 73.9527 73.5005L73.6915 71.9814L77.6441 68.1386C78.2173 67.5813 78.4199 66.7634 78.1733 66.0036Z" fill="#0572CB"/>
<path d="M40.0049 51.3661C46.1597 51.3661 51.817 49.2066 56.2592 45.6092C56.3623 45.5482 56.4545 45.4725 56.5338 45.3846C62.2132 40.655 65.8332 33.5444 65.8332 25.6049C65.8338 11.4002 54.2468 -0.15625 40.0049 -0.15625C25.7629 -0.15625 14.176 11.4002 14.176 25.6049C14.176 39.8097 25.7629 51.3661 40.0049 51.3661ZM40.0049 2.18751C52.9547 2.18751 63.49 12.6923 63.49 25.6049C63.49 32.2065 60.7355 38.1776 56.3135 42.4384C55.2948 39.6778 53.0817 37.4995 50.2069 36.5363L47.3859 35.5903C46.8707 35.4188 46.4014 35.127 46.0266 34.7437C46.0169 34.7327 46.0065 34.723 45.9961 34.712C45.9894 34.7053 45.9833 34.6986 45.9766 34.6918C45.9735 34.6888 45.9705 34.6851 45.9674 34.6821C45.3693 34.043 45.0403 33.2093 45.0403 32.331V29.0485L46.2183 28.3338C47.7637 27.3951 48.7238 25.6904 48.7238 23.8843V18.8965C48.7238 18.8935 48.7238 18.8904 48.7238 18.8874V14.5453C48.7238 11.3349 46.1066 8.72316 42.89 8.72316H37.1185C33.9013 8.72316 31.2842 11.3349 31.2842 14.5453V18.2965V18.2996V23.8837C31.2842 25.6898 32.2449 27.3951 33.7903 28.3332L34.9707 29.0497V32.331C34.9707 33.2752 34.5758 34.1865 33.8867 34.8359C33.88 34.842 33.8739 34.8487 33.8672 34.8548C33.5107 35.1856 33.0908 35.4328 32.6202 35.5909L29.8016 36.5363C28.7182 36.9001 27.7154 37.4427 26.8188 38.1495C26.3348 38.5328 25.8844 38.9643 25.4797 39.4312C25.0561 39.9207 25.1098 40.6611 25.5993 41.0847C25.8209 41.2763 26.0937 41.3703 26.3653 41.3703C26.6937 41.3703 27.0202 41.233 27.2522 40.9657C27.5604 40.6092 27.904 40.2796 28.2721 39.9891C28.955 39.4502 29.721 39.0357 30.5475 38.758L33.3655 37.8132C33.9209 37.627 34.4348 37.3628 34.9011 37.0283C36.4441 37.5147 38.0395 37.7607 39.657 37.7607C39.7711 37.7607 39.8846 37.7589 39.9988 37.757C41.6699 37.7204 43.3142 37.4226 44.8969 36.8696C45.4181 37.2804 46.0107 37.6032 46.6437 37.8132L49.4617 38.7586C51.944 39.5899 53.7769 41.6096 54.375 44.1139C50.4004 47.1888 45.4138 49.0223 40.0049 49.0223C27.055 49.0223 16.5197 38.5175 16.5197 25.6049C16.5197 12.6923 27.055 2.18751 40.0049 2.18751ZM46.3806 17.2766L37.8985 14.5575C37.6013 14.4629 37.2778 14.4898 37.0001 14.6338L33.6285 16.3874V14.5453C33.6285 12.6276 35.1941 11.0669 37.1185 11.0669H42.89C44.8145 11.0669 46.3806 12.6276 46.3806 14.5453V17.2766ZM33.6279 19.029L37.6483 16.9391L46.3806 19.7382V23.8843C46.3806 24.8768 45.8521 25.8137 45.0018 26.33L41.5002 28.4559C40.5774 29.0162 39.4311 29.0162 38.5089 28.4559L35.0073 26.33C34.1571 25.8143 33.6285 24.8768 33.6285 23.8843V19.029H33.6279ZM37.3144 32.331V30.4719C38.1457 30.9705 39.0747 31.2208 40.0043 31.2208C40.9351 31.2208 41.8652 30.9705 42.6965 30.47V32.331C42.6965 33.2392 42.9077 34.1187 43.3032 34.9116C42.2089 35.218 41.0858 35.3889 39.9487 35.4133C38.8251 35.4383 37.7112 35.3193 36.6217 35.0672C37.0703 34.2323 37.3144 33.2917 37.3144 32.331Z" fill="#0572CB"/>
</g>
<defs>
<clipPath id="clip0">
<rect width="80" height="80" fill="white"/>
</clipPath>
</defs>
</svg>
