<svg width="80" height="80" viewBox="0 0 80 80" fill="none" xmlns="http://www.w3.org/2000/svg">
<path d="M41.0444 43.6605C40.8964 43.6284 40.7445 43.6227 40.5946 43.6451C39.0921 43.4702 37.9586 42.1989 37.956 40.6868C37.956 39.9621 37.3685 39.3746 36.6438 39.3746C35.9191 39.3746 35.3316 39.9621 35.3316 40.6868C35.3354 43.2119 37.0244 45.4238 39.4592 46.0921V47.4043C39.4592 48.129 40.0468 48.7165 40.7714 48.7165C41.4961 48.7165 42.0837 48.129 42.0837 47.4043V46.1715C44.894 45.5833 46.804 42.9659 46.5086 40.1101C46.2126 37.2544 43.8066 35.0842 40.9355 35.0835C39.2901 35.0835 37.956 33.7495 37.956 32.1041C37.956 30.4587 39.2901 29.1247 40.9355 29.1247C42.5809 29.1247 43.9149 30.4587 43.9149 32.1041C43.9149 32.8288 44.5025 33.4163 45.2271 33.4163C45.9518 33.4163 46.5394 32.8288 46.5394 32.1041C46.5355 29.4527 44.678 27.1659 42.0837 26.6188V25.4244C42.0837 24.6997 41.4961 24.1122 40.7714 24.1122C40.0468 24.1122 39.4592 24.6997 39.4592 25.4244V26.6988C36.7515 27.4383 35.0087 30.0672 35.3816 32.8493C35.7545 35.6314 38.1284 37.708 40.9355 37.7074C42.5591 37.7074 43.8835 39.0074 43.913 40.6304C43.9431 42.2534 42.6668 43.6015 41.0444 43.6605Z" fill="#0572CB"/>
<path d="M21.9069 36.4964C21.9069 47.0058 30.4261 55.525 40.9355 55.525C51.4449 55.525 59.9641 47.0058 59.9641 36.4964C59.9641 25.987 51.4449 17.4678 40.9355 17.4678C30.4312 17.4793 21.919 25.9922 21.9069 36.4964ZM40.9355 20.0922C49.9955 20.0922 57.3396 27.4364 57.3396 36.4964C57.3396 45.5564 49.9955 52.9006 40.9355 52.9006C31.8755 52.9006 24.5313 45.5564 24.5313 36.4964C24.5416 27.4409 31.8799 20.1025 40.9355 20.0922Z" fill="#0572CB"/>
<path d="M66.433 58.7601L56.1536 63.6169C54.7344 60.9771 52.0119 59.2971 49.0158 59.2125L39.5265 58.9517C38.024 58.9088 36.5496 58.5282 35.2137 57.8381L34.2481 57.3377C29.3042 54.7607 23.4113 54.7671 18.4725 57.3544L18.5327 55.1669C18.5526 54.4422 17.9817 53.8386 17.257 53.8188L6.85144 53.5324C6.12676 53.5125 5.52383 54.0834 5.50397 54.8081L4.8754 77.6427C4.85554 78.3674 5.42644 78.9709 6.15111 78.9908L16.5567 79.2772H16.5926C17.3038 79.2772 17.8856 78.7114 17.9048 78.0009L17.9349 76.9084L20.6382 75.461C21.6993 74.8901 22.9397 74.7542 24.0988 75.0823L40.2416 79.613C40.2698 79.6213 40.2979 79.6277 40.3268 79.6341C41.4936 79.8782 42.6828 80.0006 43.8745 80C46.3991 80.0012 48.8941 79.4573 51.1886 78.4039C51.2449 78.3783 51.2994 78.3481 51.3513 78.3142L74.7568 63.1748C75.3399 62.7974 75.5283 62.0317 75.1868 61.4269C73.4491 58.3437 69.595 57.1692 66.433 58.7601ZM7.53511 76.4035L8.09127 56.1921L15.873 56.4061L15.3169 76.6181L7.53511 76.4035ZM50.0064 76.0601C47.1558 77.3467 43.9719 77.7016 40.9079 77.0756L24.8088 72.5565C22.9967 72.0446 21.0572 72.2566 19.3996 73.1479L18.0182 73.888L18.3879 60.4498C22.7654 57.5383 28.3796 57.239 33.0416 59.6681L34.0072 60.1685C35.6949 61.0399 37.5562 61.5204 39.4547 61.5755L48.9447 61.8363C51.6102 61.9132 53.8739 63.8111 54.4147 66.4227L40.2794 66.0325C39.5547 66.0127 38.9518 66.5842 38.9313 67.3082C38.9114 68.0329 39.4829 68.6365 40.207 68.6563L55.8064 69.0856H55.8429C56.5535 69.085 57.1346 68.5192 57.1538 67.8093C57.1698 67.239 57.1276 66.6681 57.027 66.1068L67.5703 61.1251C67.5806 61.1206 67.5908 61.1155 67.6011 61.1104C69.0965 60.3537 70.9047 60.6067 72.1349 61.7453L50.0064 76.0601Z" fill="#0572CB"/>
<path d="M42.2477 13.7784V1.31223C42.2477 0.587556 41.6601 0 40.9355 0C40.2108 0 39.6232 0.587556 39.6232 1.31223V13.7784C39.6232 14.5031 40.2108 15.0907 40.9355 15.0907C41.6601 15.0907 42.2477 14.5031 42.2477 13.7784Z" fill="#0572CB"/>
<path d="M52.0894 13.7784V7.87339C52.0894 7.14871 51.5019 6.56116 50.7772 6.56116C50.0525 6.56116 49.465 7.14871 49.465 7.87339V13.7784C49.465 14.5031 50.0525 15.0907 50.7772 15.0907C51.5019 15.0907 52.0894 14.5031 52.0894 13.7784Z" fill="#0572CB"/>
<path d="M32.406 13.7784V7.87339C32.406 7.14871 31.8185 6.56116 31.0938 6.56116C30.3691 6.56116 29.7816 7.14871 29.7816 7.87339V13.7784C29.7816 14.5031 30.3691 15.0907 31.0938 15.0907C31.8185 15.0907 32.406 14.5031 32.406 13.7784Z" fill="#0572CB"/>
</svg>
