<svg width="80" height="80" viewBox="0 0 80 80" fill="none" xmlns="http://www.w3.org/2000/svg">
<g clip-path="url(#clip0)">
<path d="M49.3333 46.6666H47.8667C47.315 46.6676 46.8215 46.3235 46.632 45.8053C46.4693 45.3786 46.2947 44.9613 46.1067 44.548C45.873 44.0453 45.9797 43.4501 46.3733 43.06L47.4187 42.0133C48.9705 40.4478 48.9677 37.9231 47.412 36.3613L43.644 32.5933C42.0802 31.0386 39.5545 31.0386 37.9907 32.5933L36.9453 33.6373C36.5543 34.0295 35.9602 34.136 35.4573 33.904C35.044 33.716 34.6267 33.5413 34.1987 33.3706C33.6778 33.1825 33.3313 32.6871 33.3333 32.1333V30.6666C33.3333 28.4575 31.5425 26.6666 29.3333 26.6666H24C21.7908 26.6666 20 28.4575 20 30.6666V32.1333C20.001 32.685 19.6568 33.1785 19.1387 33.368C18.712 33.5306 18.2947 33.7053 17.8813 33.8933C17.3785 34.1258 16.7842 34.0193 16.3933 33.6266L15.3467 32.5813C13.783 31.0276 11.2583 31.0276 9.69467 32.5813L5.92667 36.3613C4.372 37.9251 4.372 40.4508 5.92667 42.0146L6.97067 43.06C7.36433 43.4501 7.471 44.0453 7.23733 44.548C7.04933 44.9613 6.87467 45.3786 6.71067 45.8066C6.51983 46.3278 6.02167 46.6723 5.46667 46.6666H4C1.79083 46.6666 0 48.4575 0 50.6666V56C0 58.2091 1.79083 60 4 60H5.46667C6.01833 59.999 6.51183 60.3431 6.70133 60.8613C6.864 61.288 7.03867 61.7053 7.22667 62.1186C7.46033 62.6213 7.35367 63.2165 6.96 63.6066L5.91467 64.6533C4.361 66.217 4.361 68.7416 5.91467 70.3053L9.68267 74.0733C11.2465 75.628 13.7722 75.628 15.336 74.0733L16.3813 73.0293C16.7723 72.6371 17.3665 72.5306 17.8693 72.7626C18.2827 72.9506 18.7 73.1253 19.128 73.296C19.6515 73.482 20.001 73.9778 20 74.5333V76C20 78.2091 21.7908 80 24 80H29.3333C31.5425 80 33.3333 78.2091 33.3333 76V74.5333C33.3323 73.9816 33.6765 73.4881 34.1947 73.2986C34.6213 73.136 35.0387 72.9613 35.452 72.7733C35.9548 72.5408 36.5492 72.6473 36.94 73.04L37.9867 74.0853C39.5525 75.6365 42.0765 75.6335 43.6387 74.0786L47.4067 70.3106C48.9613 68.7468 48.9613 66.2211 47.4067 64.6573L46.3627 63.612C45.969 63.2218 45.8623 62.6266 46.096 62.124C46.284 61.7106 46.4587 61.2933 46.6293 60.8653C46.8175 60.3445 47.3128 59.998 47.8667 60H49.3333C51.5425 60 53.3333 58.2091 53.3333 56V50.6666C53.3333 48.4575 51.5425 46.6666 49.3333 46.6666ZM50.6667 56C50.6667 56.7363 50.0697 57.3333 49.3333 57.3333H47.8667C46.2092 57.3395 44.7258 58.364 44.1333 59.912C43.992 60.2853 43.8392 60.6528 43.6747 61.0146C42.9892 62.528 43.3072 64.3073 44.4747 65.4893L45.5173 66.5333C46.0383 67.0536 46.0388 67.898 45.5183 68.419C45.518 68.4193 45.5177 68.4196 45.5173 68.42L41.7493 72.188C41.2287 72.7085 40.3847 72.7085 39.864 72.188L38.8187 71.144C37.6372 69.9755 35.8572 69.6573 34.344 70.344C33.9827 70.508 33.6147 70.6613 33.244 70.8026C31.6972 71.395 30.6733 72.877 30.6667 74.5333V76C30.6667 76.7363 30.0697 77.3333 29.3333 77.3333H24C23.2637 77.3333 22.6667 76.7363 22.6667 76V74.5333C22.6605 72.8758 21.636 71.3925 20.088 70.8C19.7147 70.6586 19.3472 70.5058 18.9853 70.3413C17.472 69.6561 15.6928 69.9743 14.5107 71.1413L13.4667 72.184C12.9463 72.705 12.102 72.7055 11.581 72.185C11.5807 72.1846 11.5803 72.1843 11.58 72.184L7.812 68.42C7.2915 67.8993 7.2915 67.0553 7.812 66.5346L8.856 65.4893C10.0235 64.3073 10.3415 62.528 9.656 61.0146C9.492 60.6533 9.33867 60.2853 9.19733 59.9146C8.60633 58.3661 7.124 57.3406 5.46667 57.3333H4C3.26367 57.3333 2.66667 56.7363 2.66667 56V50.6666C2.66667 49.9303 3.26367 49.3333 4 49.3333H5.46667C7.12417 49.3271 8.6075 48.3026 9.2 46.7546C9.34133 46.3813 9.49417 46.0138 9.65867 45.652C10.3442 44.1386 10.026 42.3593 8.85867 41.1773L7.81067 40.1333C7.28967 39.613 7.28917 38.7686 7.80967 38.2476C7.81 38.2473 7.81033 38.247 7.81067 38.2466L11.5787 34.4786C12.0993 33.9581 12.9433 33.9581 13.464 34.4786L14.5093 35.5226C15.6908 36.6911 17.4708 37.0093 18.984 36.3226C19.3453 36.1586 19.7133 36.0053 20.084 35.864C21.633 35.2735 22.6592 33.791 22.6667 32.1333V30.6666C22.6667 29.9303 23.2637 29.3333 24 29.3333H29.3333C30.0697 29.3333 30.6667 29.9303 30.6667 30.6666V32.1333C30.6728 33.7908 31.6973 35.2741 33.2453 35.8666C33.6187 36.008 33.9862 36.1608 34.348 36.3253C35.8612 37.012 37.6412 36.6938 38.8227 35.5253L39.8667 34.4826C40.3893 33.9656 41.2307 33.9656 41.7533 34.4826L45.5213 38.2506C46.0418 38.7713 46.0418 39.6153 45.5213 40.136L44.4773 41.1813C43.31 42.3633 42.9918 44.1426 43.6773 45.656C43.8413 46.0173 43.9947 46.3853 44.136 46.756C44.7283 48.3028 46.2103 49.3266 47.8667 49.3333H49.3333C50.0697 49.3333 50.6667 49.9303 50.6667 50.6666V56Z" fill="#0572CB"/>
<path d="M38.64 52.8C38.6267 52.48 38.604 52.1614 38.5654 51.844C38.5227 51.5027 38.472 51.164 38.4014 50.832C38.3547 50.6147 38.2934 50.4 38.2347 50.184C38.16 49.9094 38.076 49.6387 37.9827 49.372C37.9174 49.1867 37.8494 49.0027 37.78 48.82C37.6084 48.393 37.412 47.9762 37.192 47.572C37.1747 47.5414 37.164 47.508 37.1467 47.4774C36.7999 46.86 36.3982 46.2749 35.9467 45.7294C35.908 45.6814 35.864 45.636 35.824 45.5894C35.64 45.372 35.4507 45.1614 35.252 44.96C35.148 44.852 35.0387 44.7507 34.9294 44.6467C34.796 44.5227 34.6627 44.4 34.5294 44.2827C34.3675 44.1422 34.2027 44.0062 34.0347 43.8747L33.816 43.712C31.7529 42.1667 29.2444 41.332 26.6667 41.3334C26.5334 41.3334 26.4 41.3534 26.2667 41.3587C25.9827 41.3667 25.6974 41.3827 25.4107 41.412C25.26 41.428 25.108 41.4454 24.9574 41.4667C24.5227 41.5239 24.0914 41.6045 23.6654 41.708C17.2452 43.367 13.3855 49.9167 15.0445 56.3369C16.1379 60.5676 19.4432 63.8702 23.6747 64.9601C23.696 64.9601 23.7187 64.9667 23.7414 64.9721C24.2019 65.0869 24.6684 65.1761 25.1387 65.2387C25.4494 65.2774 25.76 65.2854 26.072 65.3001C26.28 65.3107 26.472 65.3414 26.6894 65.3414C27.0694 65.3414 27.464 65.3161 27.8667 65.2761C27.9094 65.2761 27.952 65.2641 28 65.2587C28.324 65.2227 28.652 65.1747 28.9867 65.1081C29.12 65.0827 29.244 65.0494 29.372 65.0201C29.6067 64.9654 29.84 64.9081 30.08 64.8374C30.2667 64.7814 30.448 64.7161 30.6307 64.6521C30.8134 64.5881 31.0027 64.5187 31.192 64.4467C31.3814 64.3747 31.54 64.2921 31.712 64.2121C31.936 64.1094 32.1587 64.0081 32.3787 63.8881H32.3867C33.631 63.2219 34.7804 62.3919 35.804 61.42C36.0805 61.1621 36.321 60.8677 36.5187 60.5454C37.5594 58.8771 38.243 57.0112 38.5267 55.0654C38.564 54.808 38.5974 54.5507 38.6174 54.288C38.636 54.0467 38.6494 53.8067 38.6547 53.5667C38.6547 53.4907 38.6654 53.4187 38.6654 53.3427C38.6667 53.1547 38.648 52.9814 38.64 52.8ZM35.9827 53.6734C35.9827 53.784 35.9734 53.8947 35.9667 54.004C35.9427 54.3267 35.9014 54.6494 35.8467 54.9734C35.3484 57.7455 33.6272 60.1456 31.1614 61.5067C30.996 61.5934 30.8334 61.6747 30.6707 61.7494L30.56 61.8027C29.7854 62.1544 28.9677 62.4019 28.128 62.5387C28.0694 62.5481 28.0094 62.5587 27.9494 62.5667C27.7827 62.5907 27.6187 62.6107 27.456 62.6254C27.2414 62.6441 27.0254 62.6547 26.8054 62.6587C26.712 62.6587 26.62 62.6587 26.5267 62.6587C26.2112 62.6551 25.8962 62.6356 25.5827 62.6001L25.4227 62.5814C25.056 62.5334 24.6924 62.4649 24.3334 62.3761C19.3397 61.0979 16.3277 56.0135 17.6057 51.0199C18.4502 47.7202 21.0252 45.1425 24.324 44.2947V44.2934C25.09 44.1002 25.8767 44.0015 26.6667 44C27.0479 44.0022 27.4287 44.028 27.8067 44.0774C27.908 44.0894 28.008 44.108 28.108 44.1227C28.396 44.168 28.6814 44.2254 28.9627 44.2974C29.0547 44.3214 29.1467 44.3427 29.2374 44.368C29.9464 44.5727 30.6289 44.86 31.2707 45.224C31.3734 45.284 31.4734 45.3467 31.5747 45.4094C31.7854 45.5427 31.9894 45.676 32.1907 45.828C32.2987 45.9067 32.408 45.984 32.512 46.068C32.7737 46.277 33.0242 46.4995 33.2627 46.7347C33.3574 46.8307 33.444 46.936 33.536 47.036C33.6894 47.2027 33.8387 47.3734 33.9814 47.5534C34.08 47.6774 34.1747 47.8054 34.268 47.9347C34.4014 48.1267 34.5347 48.3267 34.6547 48.5294C34.7214 48.64 34.788 48.748 34.856 48.8614C35.028 49.1779 35.1812 49.5042 35.3147 49.8387C35.368 49.972 35.4134 50.1054 35.4614 50.2387C35.548 50.484 35.6227 50.732 35.688 50.9827C35.7214 51.116 35.7587 51.2347 35.7867 51.364C35.8645 51.7244 35.921 52.089 35.956 52.456C35.964 52.5534 35.964 52.652 35.9707 52.7494C35.9894 53.056 35.9947 53.364 35.9827 53.6734Z" fill="#0572CB"/>
<path d="M76 28H71.8067C71.2475 28.0057 70.7474 27.6535 70.564 27.1253C70.1505 25.8868 69.6502 24.6788 69.0667 23.5107C68.819 23.0062 68.9222 22.3997 69.3227 22.0053L72.296 19.028C73.8567 17.4662 73.8567 14.9352 72.296 13.3733L66.6267 7.71333C65.0649 6.15267 62.5339 6.15267 60.972 7.71333L58 10.684C57.6062 11.0843 57.0005 11.188 56.496 10.9413C55.3277 10.3548 54.1194 9.85183 52.88 9.436C52.3497 9.2545 51.995 8.75383 52 8.19333V4C52 1.79083 50.2092 0 48 0H40C37.7909 0 36 1.79083 36 4V8.19333C36.0057 8.7525 35.6537 9.25267 35.1254 9.436C33.8867 9.85167 32.6787 10.3543 31.5107 10.94C31.0062 11.1885 30.3994 11.0853 30.0054 10.684L27.028 7.71067C25.4644 6.1545 22.937 6.1545 21.3734 7.71067L15.7147 13.3693C14.1532 14.9313 14.1532 17.4633 15.7147 19.0253L20.0867 23.4053C20.6155 23.9177 21.4597 23.9043 21.972 23.3753C22.4719 22.8593 22.473 22.04 21.9747 21.5227L17.6 17.144C17.0795 16.6233 17.0795 15.7793 17.6 15.2587L23.2587 9.6C23.7794 9.0795 24.6234 9.0795 25.144 9.6L28.1227 12.5733C29.3279 13.7857 31.1745 14.0887 32.704 13.3253C33.7602 12.7965 34.8522 12.3425 35.972 11.9667C37.5884 11.4195 38.6737 9.89983 38.6667 8.19333V4C38.6667 3.26367 39.2637 2.66667 40 2.66667H48C48.7364 2.66667 49.3334 3.26367 49.3334 4V8.19333C49.3265 9.8995 50.4119 11.4187 52.028 11.9653C53.1484 12.3413 54.2409 12.7957 55.2974 13.3253C56.8272 14.0847 58.6714 13.7813 59.8774 12.572L62.856 9.6C63.3767 9.0795 64.2207 9.0795 64.7414 9.6L70.4 15.26C70.9197 15.7805 70.9197 16.6235 70.4 17.144L67.4267 20.1227C66.2155 21.3285 65.9127 23.1743 66.6747 24.704C67.2035 25.7602 67.6575 26.8522 68.0334 27.972C68.5802 29.5887 70.1 30.674 71.8067 30.6667H76C76.7364 30.6667 77.3334 31.2637 77.3334 32V40C77.3334 40.7363 76.7364 41.3333 76 41.3333H71.8067C70.1005 41.3265 68.5814 42.4118 68.0347 44.028C67.6589 45.1483 67.2044 46.2408 66.6747 47.2973C65.914 48.827 66.2175 50.6718 67.428 51.8773L70.4014 54.856C70.9219 55.3767 70.9219 56.2207 70.4014 56.7413L64.74 62.4C64.2195 62.9197 63.3765 62.9197 62.856 62.4L58.4747 58.028C57.9624 57.499 57.1182 57.4857 56.5894 57.998C56.0604 58.5103 56.047 59.3545 56.5594 59.8833C56.57 59.8943 56.581 59.9053 56.592 59.916L60.972 64.288C62.5339 65.8487 65.0649 65.8487 66.6267 64.288L72.2854 58.6307C73.8469 57.0687 73.8469 54.5367 72.2854 52.9747L69.316 50C68.916 49.606 68.8125 49.0005 69.0587 48.496C69.6452 47.3277 70.1482 46.1193 70.564 44.88C70.7455 44.3497 71.2462 43.995 71.8067 44H76C78.2092 44 80 42.2092 80 40V32C80 29.7908 78.2092 28 76 28Z" fill="#0572CB"/>
<path d="M56.2559 23.7439C49.4829 16.9851 38.5169 16.9851 31.7439 23.7439C31.2324 24.2736 31.2471 25.1178 31.7767 25.6293C32.2934 26.1283 33.1126 26.1283 33.6292 25.6293C39.3184 19.8633 48.6046 19.8011 54.3706 25.4903C60.1366 31.1794 60.1988 40.4656 54.5096 46.2316C54.4636 46.2783 54.4173 46.3246 54.3706 46.3706C53.8409 46.8823 53.8263 47.7263 54.3379 48.2559C54.8496 48.7856 55.6936 48.8003 56.2233 48.2886C56.2343 48.2779 56.2453 48.2669 56.2559 48.2559C63.0148 41.4829 63.0148 30.5169 56.2559 23.7439Z" fill="#0572CB"/>
</g>
<defs>
<clipPath id="clip0">
<rect width="80" height="80" fill="white"/>
</clipPath>
</defs>
</svg>
