<svg width="80" height="80" viewBox="0 0 80 80" fill="none" xmlns="http://www.w3.org/2000/svg">
<g clip-path="url(#clip0)">
<path d="M73.4104 34.8865V11.6822C73.4104 11.0515 73.004 10.4921 72.404 10.2974L40.9391 0.0719345C40.6205 -0.0321264 40.2911 -0.0194703 39.9995 0.0864655C39.7053 -0.0185328 39.3769 -0.0311889 39.0583 0.0719345L7.59427 10.2974C6.99413 10.4919 6.58788 11.0504 6.58788 11.6822L6.58976 34.8314C6.5771 35.1698 5.6929 68.8296 39.2467 79.9258C39.3942 79.9757 39.5499 80.0001 39.7047 80.0001H40.2958C40.4506 80.0001 40.6063 79.9757 40.7538 79.9258C74.3065 68.8296 73.4223 35.1689 73.4104 34.8865ZM40.0594 77.0875H39.9399C8.71925 66.6222 9.45237 36.2315 9.49956 34.8865V12.7394L39.9572 2.84142C39.9717 2.83689 39.9853 2.83142 39.9997 2.82689C40.0124 2.83142 40.0269 2.83689 40.0405 2.84142L70.4989 12.7402L70.5008 34.9426C70.5125 35.2576 71.337 66.5976 40.0594 77.0875Z" fill="#0572CB"/>
<path d="M64.3217 15.8203L40.7092 7.87448C40.5047 7.80667 40.2928 7.79026 40.0964 7.80667C39.8991 7.79136 39.69 7.80667 39.4836 7.87448L15.8738 15.8201C15.2827 16.0201 14.8828 16.575 14.8828 17.2004L14.8846 35.2811C14.8928 35.5408 16.073 61.4052 39.5707 70.5076C39.7399 70.5727 39.9191 70.6054 40.0964 70.6054C40.2738 70.6054 40.453 70.5727 40.6222 70.5076C64.1207 61.4052 65.3027 35.5409 65.3126 35.2295V17.2004C65.312 16.5751 64.9128 16.0203 64.3217 15.8203ZM40.0964 67.586C18.9213 59.0068 17.8026 35.4178 17.7944 35.2305V18.2467L40.0964 10.7408L62.4011 18.2467L62.402 35.178C62.3922 35.4169 61.2716 59.0068 40.0964 67.586Z" fill="#0572CB"/>
<path d="M56.7635 29.247C56.1445 28.7293 55.2257 28.8162 54.7126 29.4317L37.8629 49.6131L26.9938 38.1992C26.4354 37.6145 25.5168 37.5964 24.9357 38.1476C24.3529 38.7025 24.3303 39.6246 24.8842 40.2057L36.8791 52.8026C37.1552 53.0913 37.5362 53.2551 37.9344 53.2551C37.9498 53.2551 37.9652 53.2551 37.9815 53.2532C38.3969 53.2405 38.7861 53.0496 39.0522 52.7318L56.9484 31.2968C57.463 30.6798 57.3807 29.762 56.7635 29.247Z" fill="#0572CB"/>
</g>
<defs>
<clipPath id="clip0">
<rect width="80" height="80" fill="white"/>
</clipPath>
</defs>
</svg>
