<svg width="80" height="80" viewBox="0 0 80 80" fill="none" xmlns="http://www.w3.org/2000/svg">
<path d="M13.7946 15.308C13.5815 15.3087 13.3729 15.2462 13.1951 15.1286C13.0173 15.011 12.8783 14.8435 12.7954 14.6471C12.7126 14.4507 12.6897 14.2342 12.7295 14.0248C12.7694 13.8154 12.8703 13.6224 13.0195 13.4702C13.7157 12.7545 14.5049 12.0162 15.4314 11.2118C15.6481 11.0239 15.9307 10.9297 16.2169 10.9501C16.503 10.9705 16.7694 11.1037 16.9573 11.3205C17.1453 11.5372 17.2394 11.8198 17.219 12.106C17.1987 12.3921 17.0654 12.6585 16.8487 12.8464C15.9676 13.6086 15.2216 14.3059 14.5698 14.9772C14.4693 15.0815 14.3489 15.1645 14.2158 15.2213C14.0826 15.2781 13.9394 15.3076 13.7946 15.308Z" fill="#0572CB"/>
<path d="M40 77.8378C34.2169 77.8361 28.5111 76.5092 23.3206 73.959C18.1301 71.4088 13.5931 67.703 10.0578 63.1263C6.52255 58.5495 4.08308 53.2235 2.92671 47.5572C1.77034 41.8908 1.92782 36.0349 3.38707 30.4389C3.4188 30.297 3.47879 30.1631 3.56347 30.045C3.64815 29.9269 3.75577 29.827 3.8799 29.7515C4.00404 29.6759 4.14213 29.6261 4.28594 29.6051C4.42974 29.5841 4.5763 29.5924 4.71686 29.6293C4.85741 29.6662 4.98908 29.7311 5.10398 29.8201C5.21888 29.9091 5.31467 30.0203 5.38561 30.1472C5.45655 30.274 5.50119 30.4138 5.51685 30.5583C5.53252 30.7028 5.5189 30.849 5.4768 30.9881C3.40956 38.9201 4.1384 47.3222 7.54061 54.7797C10.9428 62.2373 16.8106 68.2949 24.1561 71.9328C31.5017 75.5706 39.8763 76.5665 47.8701 74.7528C55.8639 72.939 62.9887 68.4265 68.0449 61.9747C73.1012 55.523 75.7802 47.5262 75.6308 39.3306C75.4814 31.1349 72.5128 23.241 67.2248 16.9779C61.9367 10.7147 54.6522 6.46477 46.5976 4.94356C38.543 3.42235 30.2103 4.72277 23.0022 8.62589C22.844 8.71212 22.6667 8.7571 22.4865 8.7567C22.2361 8.75935 21.9926 8.67499 21.7975 8.51802C21.6023 8.36105 21.4678 8.14122 21.4167 7.89606C21.3657 7.65091 21.4013 7.39563 21.5176 7.17383C21.6338 6.95203 21.8234 6.77747 22.0541 6.67995C27.1223 3.95271 32.7458 2.41756 38.4967 2.19135C44.2477 1.96514 49.9744 3.05382 55.2412 5.37454C60.5079 7.69525 65.1758 11.1868 68.8897 15.5836C72.6036 19.9803 75.2655 25.1664 76.673 30.747C78.0804 36.3276 78.1962 42.1558 77.0116 47.7879C75.827 53.4201 73.3732 58.7078 69.8369 63.2486C66.3007 67.7894 61.7751 71.4637 56.6048 73.9919C51.4344 76.52 45.7554 77.8353 40 77.8378Z" fill="#0572CB"/>
<path d="M7.40427 24.0648C7.21792 24.0647 7.03476 24.0164 6.87258 23.9246C6.7104 23.8328 6.5747 23.7007 6.47865 23.541C6.3826 23.3813 6.32945 23.1995 6.32438 23.0132C6.3193 22.8269 6.36246 22.6425 6.44967 22.4778C7.00643 21.4237 7.5567 20.4778 8.12968 19.5881C8.2029 19.4614 8.30107 19.3509 8.41824 19.2633C8.53541 19.1757 8.66914 19.1128 8.81133 19.0784C8.95352 19.044 9.10122 19.0388 9.24548 19.0632C9.38973 19.0875 9.52755 19.1409 9.65058 19.22C9.77361 19.2992 9.87929 19.4025 9.96122 19.5237C10.0432 19.6449 10.0996 19.7815 10.1272 19.9251C10.1549 20.0688 10.153 20.2166 10.1218 20.3595C10.0907 20.5025 10.0308 20.6376 9.94589 20.7567C9.40535 21.5946 8.88859 22.4864 8.35886 23.4886C8.26712 23.6623 8.12977 23.8078 7.96159 23.9093C7.7934 24.0108 7.60072 24.0646 7.40427 24.0648Z" fill="#0572CB"/>
<path d="M40 70.8779C33.893 70.8779 27.9231 69.0669 22.8452 65.674C17.7674 62.2811 13.8097 57.4587 11.4726 51.8165C9.13557 46.1743 8.52409 39.9658 9.71552 33.9761C10.9069 27.9864 13.8478 22.4845 18.1661 18.1661C22.4845 13.8478 27.9864 10.9069 33.9761 9.71552C39.9658 8.52409 46.1743 9.13557 51.8165 11.4726C57.4587 13.8097 62.2811 17.7674 65.674 22.8452C69.0669 27.9231 70.8779 33.893 70.8779 40C70.8687 48.1866 67.6126 56.0351 61.8239 61.8239C56.0351 67.6126 48.1865 70.8687 40 70.8779ZM40 11.2844C34.3206 11.2844 28.7687 12.9685 24.0465 16.1238C19.3242 19.2792 15.6436 23.7639 13.4702 29.011C11.2968 34.2581 10.7281 40.0319 11.8361 45.6022C12.9441 51.1725 15.679 56.2891 19.695 60.3051C23.711 64.3211 28.8276 67.056 34.3979 68.164C39.9682 69.272 45.742 68.7033 50.9891 66.5299C56.2362 64.3564 60.7209 60.6759 63.8763 55.9536C67.0316 51.2314 68.7157 45.6795 68.7157 40C68.7068 32.3869 65.6786 25.0881 60.2953 19.7048C54.912 14.3215 47.6132 11.2932 40 11.2844Z" fill="#0572CB"/>
<path d="M40 22.9957C39.7133 22.9957 39.4383 22.8818 39.2356 22.6791C39.0328 22.4763 38.9189 22.2013 38.9189 21.9146V19.6844C38.9189 19.3976 39.0328 19.1227 39.2356 18.9199C39.4383 18.7172 39.7133 18.6033 40 18.6033C40.2868 18.6033 40.5617 18.7172 40.7645 18.9199C40.9672 19.1227 41.0811 19.3976 41.0811 19.6844V21.9146C41.0811 22.0566 41.0532 22.1972 40.9988 22.3283C40.9445 22.4595 40.8649 22.5787 40.7645 22.6791C40.6641 22.7794 40.5449 22.8591 40.4137 22.9134C40.2826 22.9677 40.142 22.9957 40 22.9957Z" fill="#0572CB"/>
<path d="M28.7351 26.6562C28.5643 26.6564 28.396 26.6161 28.2437 26.5387C28.0915 26.4613 27.9598 26.3489 27.8594 26.2108L26.5502 24.4065C26.3816 24.1745 26.3121 23.8851 26.3569 23.6018C26.4017 23.3186 26.5572 23.0648 26.7892 22.8962C27.0211 22.7276 27.3105 22.6581 27.5938 22.7029C27.877 22.7477 28.1308 22.9031 28.2994 23.1351L29.6097 24.9394C29.7269 25.1007 29.7973 25.2913 29.813 25.4901C29.8287 25.6889 29.7891 25.8882 29.6985 26.0658C29.608 26.2435 29.4701 26.3927 29.3001 26.4969C29.13 26.6011 28.9345 26.6562 28.7351 26.6562Z" fill="#0572CB"/>
<path d="M21.7719 36.24C21.6584 36.2398 21.5457 36.222 21.4378 36.187L19.3167 35.4973C19.0571 35.3989 18.8452 35.2043 18.7251 34.9539C18.605 34.7036 18.5859 34.4166 18.6716 34.1525C18.7574 33.8883 18.9415 33.6674 19.1858 33.5353C19.4301 33.4033 19.7158 33.3703 19.9838 33.4432L22.1048 34.1319C22.3503 34.2108 22.5595 34.3749 22.6947 34.5945C22.8298 34.8141 22.882 35.0748 22.8418 35.3296C22.8016 35.5843 22.6717 35.8162 22.4755 35.9836C22.2793 36.1509 22.0297 36.2426 21.7719 36.2421V36.24Z" fill="#0572CB"/>
<path d="M58.228 36.2401C57.9702 36.2406 57.7206 36.1489 57.5244 35.9815C57.3282 35.8142 57.1983 35.5822 57.1581 35.3275C57.1179 35.0728 57.1701 34.8121 57.3052 34.5924C57.4404 34.3728 57.6496 34.2087 57.8951 34.1298L60.0161 33.4411C60.2841 33.3682 60.5698 33.4012 60.8141 33.5332C61.0584 33.6653 61.2425 33.8863 61.3283 34.1504C61.414 34.4145 61.3949 34.7015 61.2748 34.9519C61.1547 35.2022 60.9428 35.3968 60.6832 35.4952L58.5621 36.1849C58.4543 36.2206 58.3416 36.2392 58.228 36.2401Z" fill="#0572CB"/>
<path d="M51.2648 26.6562C51.0654 26.6562 50.8699 26.6011 50.6998 26.4969C50.5298 26.3927 50.3919 26.2435 50.3014 26.0658C50.2109 25.8882 50.1713 25.6889 50.1869 25.4901C50.2026 25.2913 50.273 25.1007 50.3902 24.9394L51.7005 23.1351C51.784 23.0202 51.8893 22.923 52.0103 22.8488C52.1314 22.7746 52.2659 22.725 52.4062 22.7029C52.5464 22.6807 52.6896 22.6863 52.8277 22.7195C52.9658 22.7527 53.0959 22.8127 53.2108 22.8962C53.3256 22.9797 53.4229 23.0849 53.4971 23.206C53.5713 23.3271 53.6208 23.4616 53.643 23.6018C53.6652 23.7421 53.6596 23.8853 53.6264 24.0234C53.5932 24.1614 53.5332 24.2916 53.4497 24.4065L52.1405 26.2108C52.0401 26.3489 51.9084 26.4613 51.7562 26.5387C51.604 26.6161 51.4356 26.6564 51.2648 26.6562Z" fill="#0572CB"/>
<path d="M49.1892 58.6486H47.6941C47.4074 58.6486 47.1324 58.5347 46.9297 58.332C46.7269 58.1292 46.613 57.8543 46.613 57.5675C46.613 57.2808 46.7269 57.0058 46.9297 56.8031C47.1324 56.6003 47.4074 56.4865 47.6941 56.4865H49.1892C49.476 56.4865 49.7509 56.6003 49.9537 56.8031C50.1564 57.0058 50.2703 57.2808 50.2703 57.5675C50.2703 57.8543 50.1564 58.1292 49.9537 58.332C49.7509 58.5347 49.476 58.6486 49.1892 58.6486Z" fill="#0572CB"/>
<path d="M40.747 58.6486H39.253C38.9662 58.6486 38.6913 58.5347 38.4885 58.332C38.2858 58.1292 38.1719 57.8543 38.1719 57.5675C38.1719 57.2808 38.2858 57.0058 38.4885 56.8031C38.6913 56.6003 38.9662 56.4865 39.253 56.4865H40.747C41.0337 56.4865 41.3087 56.6003 41.5115 56.8031C41.7142 57.0058 41.8281 57.2808 41.8281 57.5675C41.8281 57.8543 41.7142 58.1292 41.5115 58.332C41.3087 58.5347 41.0337 58.6486 40.747 58.6486Z" fill="#0572CB"/>
<path d="M32.3059 58.6486H30.8108C30.5241 58.6486 30.2491 58.5347 30.0464 58.332C29.8436 58.1292 29.7297 57.8543 29.7297 57.5675C29.7297 57.2808 29.8436 57.0058 30.0464 56.8031C30.2491 56.6003 30.5241 56.4865 30.8108 56.4865H32.3059C32.5927 56.4865 32.8676 56.6003 33.0704 56.8031C33.2731 57.0058 33.387 57.2808 33.387 57.5675C33.387 57.8543 33.2731 58.1292 33.0704 58.332C32.8676 58.5347 32.5927 58.6486 32.3059 58.6486Z" fill="#0572CB"/>
<path d="M40 48.7838C39.118 48.7838 38.2558 48.5223 37.5224 48.0322C36.7891 47.5422 36.2175 46.8458 35.88 46.0309C35.5425 45.216 35.4541 44.3194 35.6262 43.4543C35.7983 42.5893 36.223 41.7947 36.8467 41.171C37.4703 40.5473 38.2649 40.1226 39.13 39.9506C39.995 39.7785 40.8917 39.8668 41.7066 40.2043C42.5214 40.5419 43.2179 41.1134 43.7079 41.8468C44.1979 42.5801 44.4595 43.4423 44.4595 44.3243C44.458 45.5066 43.9877 46.6401 43.1517 47.4761C42.3157 48.3121 41.1823 48.7824 40 48.7838ZM40 42.027C39.5456 42.027 39.1015 42.1618 38.7237 42.4142C38.3459 42.6666 38.0514 43.0254 37.8776 43.4452C37.7037 43.865 37.6582 44.3269 37.7468 44.7725C37.8355 45.2181 38.0543 45.6275 38.3756 45.9488C38.6968 46.2701 39.1062 46.4888 39.5518 46.5775C39.9974 46.6661 40.4594 46.6206 40.8791 46.4468C41.2989 46.2729 41.6577 45.9784 41.9101 45.6006C42.1626 45.2229 42.2973 44.7787 42.2973 44.3243C42.2967 43.7152 42.0545 43.1312 41.6238 42.7005C41.1931 42.2698 40.6091 42.0276 40 42.027Z" fill="#0572CB"/>
<path d="M38.9189 42.1621C38.6818 42.1619 38.4514 42.0839 38.2631 41.9399C38.0748 41.7959 37.939 41.5941 37.8767 41.3654L35.2237 31.6356C35.1483 31.359 35.1859 31.0636 35.3282 30.8147C35.4706 30.5657 35.706 30.3835 35.9826 30.3081C36.2593 30.2327 36.5546 30.2703 36.8036 30.4126C37.0526 30.5549 37.2348 30.7903 37.3102 31.067L39.9632 40.7967C40.0069 40.9572 40.0131 41.1256 39.9811 41.2888C39.9491 41.4521 39.8799 41.6057 39.7789 41.7378C39.6778 41.8699 39.5476 41.977 39.3985 42.0506C39.2493 42.1241 39.0852 42.1623 38.9189 42.1621Z" fill="#0572CB"/>
</svg>
